<svg xmlns="http://www.w3.org/2000/svg" xmlns:xlink="http://www.w3.org/1999/xlink" version="1.1" class="marks" width="1426" height="654" viewBox="0 0 713 327"><rect width="713" height="327" fill="#fdf6e3"/><g fill="none" stroke-miterlimit="10" transform="translate(50,12)"><g class="mark-group role-frame root" role="graphics-object" aria-roledescription="group mark container"><g transform="translate(0,0)"><path class="background" aria-hidden="true" d="M0,0h600v300h-600Z"/><g><g class="mark-group role-axis" role="graphics-symbol" aria-roledescription="axis" aria-label="X-axis for a discrete scale with 6 values: 1, 2, 3, 4, 5, 6"><g transform="translate(0.5,300.5)"><path class="background" aria-hidden="true" d="M0,0h0v0h0Z" pointer-events="none"/><g><g class="mark-text role-axis-label" pointer-events="none"><text text-anchor="middle" transform="translate(2.470297029702973,13)" font-family="IBM Plex Sans" font-size="12px" font-weight="400" fill="#657b83" opacity="1">2018</text><text text-anchor="middle" transform="translate(121.2821782178218,13)" font-family="IBM Plex Sans" font-size="12px" font-weight="400" fill="#657b83" opacity="1">2019</text><text text-anchor="middle" transform="translate(240.0940594059406,13)" font-family="IBM Plex Sans" font-size="12px" font-weight="400" fill="#657b83" opacity="1">2020</text><text text-anchor="middle" transform="translate(358.9059405940594,13)" font-family="IBM Plex Sans" font-size="12px" font-weight="400" fill="#657b83" opacity="1">2021</text><text text-anchor="middle" transform="translate(477.71782178217825,13)" font-family="IBM Plex Sans" font-size="12px" font-weight="400" fill="#657b83" opacity="1">2022</text><text text-anchor="middle" transform="translate(596.529702970297,13)" font-family="IBM Plex Sans" font-size="12px" font-weight="400" fill="#657b83" opacity="1">2023</text></g></g><path class="foreground" aria-hidden="true" d="" pointer-events="none" display="none"/></g></g><g class="mark-rect role-mark" role="graphics-symbol" aria-roledescription="rect mark container"><path d="M0,47.01990799169481h5.940594059405946v205.96018401661036h-5.940594059405946Z" fill="#859900" fill-opacity="1" stroke="#859900" stroke-width="0"/><path d="M118.81188118811882,226.84118389447545h5.940594059405946v73.0366811871514h-5.940594059405946Z" fill="#2aa198" fill-opacity="1" stroke="#2aa198" stroke-width="0"/><path d="M118.81188118811882,73.38680128648781h5.940594059405946v122.41989984936697h-5.940594059405946Z" fill="#859900" fill-opacity="1" stroke="#859900" stroke-width="0"/><path d="M118.81188118811882,31.48231079265562h5.940594059405946v10.870007735211505h-5.940594059405946Z" fill="#268bd2" fill-opacity="1" stroke="#268bd2" stroke-width="0"/><path d="M118.81188118811882,0.12213491837317347h5.940594059405946v0.3256931156617626h-5.940594059405946Z" fill="#6c71c4" fill-opacity="1" stroke="#6c71c4" stroke-width="0"/><path d="M237.62376237623764,215.07552009119408h5.940594059405946v84.92447990880592h-5.940594059405946Z" fill="#2aa198" fill-opacity="1" stroke="#2aa198" stroke-width="0"/><path d="M237.62376237623764,76.72515572202092h5.940594059405946v107.31588161055247h-5.940594059405946Z" fill="#859900" fill-opacity="1" stroke="#859900" stroke-width="0"/><path d="M237.62376237623764,31.685868989944243h5.940594059405946v14.004803973455996h-5.940594059405946Z" fill="#268bd2" fill-opacity="1" stroke="#268bd2" stroke-width="0"/><path d="M237.62376237623764,0h5.940594059405946v0.6513862313235252h-5.940594059405946Z" fill="#6c71c4" fill-opacity="1" stroke="#6c71c4" stroke-width="0"/><path d="M356.43564356435644,206.3632292472418h5.940594059405946v93.5960591133005h-5.940594059405946Z" fill="#2aa198" fill-opacity="1" stroke="#2aa198" stroke-width="0"/><path d="M356.43564356435644,80.42991491267355h5.940594059405946v94.89883157594755h-5.940594059405946Z" fill="#859900" fill-opacity="1" stroke="#859900" stroke-width="0"/><path d="M356.43564356435644,32.011562105606004h5.940594059405946v17.38387004844683h-5.940594059405946Z" fill="#268bd2" fill-opacity="1" stroke="#268bd2" stroke-width="0"/><path d="M356.43564356435644,0.04071163945772449h5.940594059405946v0.9363677075275634h-5.940594059405946Z" fill="#6c71c4" fill-opacity="1" stroke="#6c71c4" stroke-width="0"/><path d="M475.2475247524753,201.64067907014615h5.940594059405946v97.9114928958189h-5.940594059405946Z" fill="#2aa198" fill-opacity="1" stroke="#2aa198" stroke-width="0"/><path d="M475.2475247524753,86.69950738916256h5.940594059405946v83.90668892236292h-5.940594059405946Z" fill="#859900" fill-opacity="1" stroke="#859900" stroke-width="0"/><path d="M475.2475247524753,32.41867850018322h5.940594059405946v23.246346130358653h-5.940594059405946Z" fill="#268bd2" fill-opacity="1" stroke="#268bd2" stroke-width="0"/><path d="M475.2475247524753,0.4478280340349361h5.940594059405946v0.9363677075275634h-5.940594059405946Z" fill="#6c71c4" fill-opacity="1" stroke="#6c71c4" stroke-width="0"/><path d="M594.059405940594,203.65590522330336h5.940594059405946v95.79448764401741h-5.940594059405946Z" fill="#2aa198" fill-opacity="1" stroke="#2aa198" stroke-width="0"/><path d="M594.059405940594,89.48825469201647h5.940594059405946v83.13316777266617h-5.940594059405946Z" fill="#859900" fill-opacity="1" stroke="#859900" stroke-width="0"/><path d="M594.059405940594,33.29397874852421h5.940594059405946v25.15979318487154h-5.940594059405946Z" fill="#268bd2" fill-opacity="1" stroke="#268bd2" stroke-width="0"/><path d="M594.059405940594,0.5496071326792307h5.940594059405946v1.7098888572242954h-5.940594059405946Z" fill="#6c71c4" fill-opacity="1" stroke="#6c71c4" stroke-width="0"/></g><g class="mark-path role-mark links" clip-path="url(#clip30)" role="graphics-symbol" aria-roledescription="path mark container"><path transform="translate(0,0)" d="M5.940594059405946,216.46175141472946C62.37623762376238,216.46175141472946 62.37623762376238,263.35952448805114 118.81188118811882,263.35952448805114" stroke="#859900" stroke-opacity="0.5" stroke-width="73.0366811871514"/><path transform="translate(0,0)" d="M5.940594059405946,119.0387981924032C62.37623762376238,119.0387981924032 62.37623762376238,134.9020885071042 118.81188118811882,134.9020885071042" stroke="#859900" stroke-opacity="0.5" stroke-width="121.80922525750108"/><path transform="translate(0,0)" d="M5.940594059405946,52.73989333550462C62.37623762376238,52.73989333550462 62.37623762376238,36.95802629971908 118.81188118811882,36.95802629971908" stroke="#859900" stroke-opacity="0.5" stroke-width="10.788584456296064"/><path transform="translate(0,0)" d="M5.940594059405946,47.182754549525704C62.37623762376238,47.182754549525704 62.37623762376238,0.28498147620403813 118.81188118811882,0.28498147620403813" stroke="#859900" stroke-opacity="0.5" stroke-width="0.32569311566174974"/><path transform="translate(0,0)" d="M124.75247524752476,270.5451288523389C181.1881188118812,270.5451288523389 181.1881188118812,270.66726377071205 237.62376237623764,270.66726377071205" stroke="#2aa198" stroke-opacity="0.5" stroke-width="58.66547245857589"/><path transform="translate(0,0)" d="M124.75247524752476,234.45426047306927C181.1881188118812,234.45426047306927 181.1881188118812,177.2829051825917 237.62376237623764,177.2829051825917" stroke="#2aa198" stroke-opacity="0.5" stroke-width="13.516264299963382"/><path transform="translate(0,0)" d="M124.75247524752476,227.3704352074258C181.1881188118812,227.3704352074258 181.1881188118812,45.364979847738475 237.62376237623764,45.364979847738475" stroke="#2aa198" stroke-opacity="0.5" stroke-width="0.6513862313234995"/><path transform="translate(0,0)" d="M124.75247524752476,183.0028905264015C181.1881188118812,183.0028905264015 181.1881188118812,228.53071693197086 237.62376237623764,228.53071693197086" stroke="#859900" stroke-opacity="0.5" stroke-width="25.607621218906502"/><path transform="translate(0,0)" d="M124.75247524752476,123.42140618002688C181.1881188118812,123.42140618002688 181.1881188118812,123.74709929568864 237.62376237623764,123.74709929568864" stroke="#859900" stroke-opacity="0.5" stroke-width="93.55534747384274"/><path transform="translate(0,0)" d="M124.75247524752476,75.15775760289868C181.1881188118812,75.15775760289868 181.1881188118812,43.55331189186988 237.62376237623764,43.55331189186988" stroke="#859900" stroke-opacity="0.5" stroke-width="2.9719496804136156"/><path transform="translate(0,0)" d="M124.75247524752476,73.52929202458984C181.1881188118812,73.52929202458984 181.1881188118812,0.5088954932215062 237.62376237623764,0.5088954932215062" stroke="#859900" stroke-opacity="0.5" stroke-width="0.28498147620405234"/><path transform="translate(0,0)" d="M124.75247524752476,42.230183609493956C181.1881188118812,42.230183609493956 181.1881188118812,215.60477140414446 237.62376237623764,215.60477140414446" stroke="#268bd2" stroke-opacity="0.5" stroke-width="0.2442698367462981"/><path transform="translate(0,0)" d="M124.75247524752476,41.985913772747644C181.1881188118812,41.985913772747644 181.1881188118812,76.84729064039409 237.62376237623764,76.84729064039409" stroke="#268bd2" stroke-opacity="0.5" stroke-width="0.2442698367462981"/><path transform="translate(0,0)" d="M124.75247524752476,36.67304482351504C181.1881188118812,36.67304482351504 181.1881188118812,36.876603020803664 237.62376237623764,36.876603020803664" stroke="#268bd2" stroke-opacity="0.5" stroke-width="10.381468061718863"/><path transform="translate(0,0)" d="M124.75247524752476,0.28498147620403813C181.1881188118812,0.28498147620403813 181.1881188118812,0.20355819728858915 237.62376237623764,0.20355819728858915" stroke="#6c71c4" stroke-opacity="0.5" stroke-width="0.32569311566174974"/><path transform="translate(0,0)" d="M243.5643564356436,263.9905548996458C300,263.9905548996458 300,263.94984326018806 356.43564356435644,263.94984326018806" stroke="#2aa198" stroke-opacity="0.5" stroke-width="72.0188902007084"/><path transform="translate(0,0)" d="M243.5643564356436,221.83365224117577C300,221.83365224117577 300,169.18128893050522 356.43564356435644,169.18128893050522" stroke="#2aa198" stroke-opacity="0.5" stroke-width="12.29491511623172"/><path transform="translate(0,0)" d="M243.5643564356436,215.38085738712698C300,215.38085738712698 300,49.09009485811995 356.43564356435644,49.09009485811995" stroke="#2aa198" stroke-opacity="0.5" stroke-width="0.6106745918658021"/><path transform="translate(0,0)" d="M243.5643564356436,173.53743435248137C300,173.53743435248137 300,217.4367951797419 356.43564356435644,217.4367951797419" stroke="#859900" stroke-opacity="0.5" stroke-width="21.007205960184024"/><path transform="translate(0,0)" d="M243.5643564356436,121.8540080609046C300,121.8540080609046 300,121.8540080609046 356.43564356435644,121.8540080609046" stroke="#859900" stroke-opacity="0.5" stroke-width="82.35964662296948"/><path transform="translate(0,0)" d="M243.5643564356436,78.903228433009C300,78.903228433009 300,47.013801245776165 356.43564356435644,47.013801245776165" stroke="#859900" stroke-opacity="0.5" stroke-width="3.5419126328217203"/><path transform="translate(0,0)" d="M243.5643564356436,77.010137198225C300,77.010137198225 300,0.8549444286121477 356.43564356435644,0.8549444286121477" stroke="#859900" stroke-opacity="0.5" stroke-width="0.2442698367462981"/><path transform="translate(0,0)" d="M243.5643564356436,45.56853804502706C300,45.56853804502706 300,206.81105728127673 356.43564356435644,206.81105728127673" stroke="#268bd2" stroke-opacity="0.5" stroke-width="0.2442698367462981"/><path transform="translate(0,0)" d="M243.5643564356436,45.32426820828075C300,45.32426820828075 300,80.55204983104669 356.43564356435644,80.55204983104669" stroke="#268bd2" stroke-opacity="0.5" stroke-width="0.2442698367462981"/><path transform="translate(0,0)" d="M243.5643564356436,38.58649187802793C300,38.58649187802793 300,38.627203517485654 356.43564356435644,38.627203517485654" stroke="#268bd2" stroke-opacity="0.5" stroke-width="13.23128282375933"/><path transform="translate(0,0)" d="M243.5643564356436,0.3256931156617626C300,0.3256931156617626 300,0.4071163945772116 356.43564356435644,0.4071163945772116" stroke="#6c71c4" stroke-opacity="0.5" stroke-width="0.6513862313234995"/><path transform="translate(0,0)" d="M362.3762376237624,259.2069372633636C418.81188118811883,259.2069372633636 418.81188118811883,258.79982086878636 475.2475247524753,258.79982086878636" stroke="#2aa198" stroke-opacity="0.5" stroke-width="81.50470219435738"/><path transform="translate(0,0)" d="M362.3762376237624,212.6531775434597C418.81188118811883,212.6531775434597 418.81188118811883,164.80478768880025 475.2475247524753,164.80478768880025" stroke="#2aa198" stroke-opacity="0.5" stroke-width="11.602817245450467"/><path transform="translate(0,0)" d="M362.3762376237624,206.6074990839881C418.81188118811883,206.6074990839881 418.81188118811883,55.42075479379556 475.2475247524753,55.42075479379556" stroke="#2aa198" stroke-opacity="0.5" stroke-width="0.48853967349265304"/><path transform="translate(0,0)" d="M362.3762376237624,167.24748605626348C418.81188118811883,167.24748605626348 418.81188118811883,209.9662093392501 475.2475247524753,209.9662093392501" stroke="#859900" stroke-opacity="0.5" stroke-width="16.162520864715248"/><path transform="translate(0,0)" d="M362.3762376237624,123.21784798273826C418.81188118811883,123.21784798273826 418.81188118811883,123.0550014249074 475.2475247524753,123.0550014249074" stroke="#859900" stroke-opacity="0.5" stroke-width="71.89675528233522"/><path transform="translate(0,0)" d="M362.3762376237624,84.17538574278387C418.81188118811883,84.17538574278387 418.81188118811883,52.08240035826242 475.2475247524753,52.08240035826242" stroke="#859900" stroke-opacity="0.5" stroke-width="6.188169197573586"/><path transform="translate(0,0)" d="M362.3762376237624,49.29365305540854C418.81188118811883,49.29365305540854 418.81188118811883,201.78316980824818 475.2475247524753,201.78316980824818" stroke="#268bd2" stroke-opacity="0.5" stroke-width="0.2035581972886007"/><path transform="translate(0,0)" d="M362.3762376237624,48.988315759475654C418.81188118811883,48.988315759475654 418.81188118811883,86.90306558645118 475.2475247524753,86.90306558645118" stroke="#268bd2" stroke-opacity="0.5" stroke-width="0.4071163945772014"/><path transform="translate(0,0)" d="M362.3762376237624,40.499938932540815C418.81188118811883,40.499938932540815 418.81188118811883,40.70349712982944 475.2475247524753,40.70349712982944" stroke="#268bd2" stroke-opacity="0.5" stroke-width="16.56963725929245"/><path transform="translate(0,0)" d="M362.3762376237624,0.5088954932215062C418.81188118811883,0.5088954932215062 418.81188118811883,0.9160118877987178 475.2475247524753,0.9160118877987178" stroke="#6c71c4" stroke-opacity="0.5" stroke-width="0.9363677075276087"/><path transform="translate(0,0)" d="M481.1881188118812,257.7209624231568C537.6237623762377,257.7209624231568 537.6237623762377,257.6191833245125 594.059405940594,257.6191833245125" stroke="#2aa198" stroke-opacity="0.5" stroke-width="83.66241908561656"/><path transform="translate(0,0)" d="M481.1881188118812,209.07055327118022C537.6237623762377,209.07055327118022 537.6237623762377,165.80222285551437 594.059405940594,165.80222285551437" stroke="#2aa198" stroke-opacity="0.5" stroke-width="13.63839921833653"/><path transform="translate(0,0)" d="M481.1881188118812,201.94601636607908C537.6237623762377,201.94601636607908 537.6237623762377,58.14843463746286 594.059405940594,58.14843463746286" stroke="#2aa198" stroke-opacity="0.5" stroke-width="0.6106745918658021"/><path transform="translate(0,0)" d="M481.1881188118812,164.7640760493425C537.6237623762377,164.7640760493425 537.6237623762377,209.94585351952122 594.059405940594,209.94585351952122" stroke="#859900" stroke-opacity="0.5" stroke-width="11.684240524365919"/><path transform="translate(0,0)" d="M481.1881188118812,124.29670642836787C537.6237623762377,124.29670642836787 537.6237623762377,124.35777388755444 594.059405940594,124.35777388755444" stroke="#859900" stroke-opacity="0.5" stroke-width="69.25049871758335"/><path transform="translate(0,0)" d="M481.1881188118812,88.5925986239466C537.6237623762377,88.5925986239466 537.6237623762377,56.764238895900334 594.059405940594,56.764238895900334" stroke="#859900" stroke-opacity="0.5" stroke-width="2.157716891259213"/><path transform="translate(0,0)" d="M481.1881188118812,87.12697960346864C537.6237623762377,87.12697960346864 537.6237623762377,1.87273541505516 594.059405940594,1.87273541505516" stroke="#859900" stroke-opacity="0.5" stroke-width="0.7735211496967054"/><path transform="translate(0,0)" d="M481.1881188118812,55.4411106135244C537.6237623762377,55.4411106135244 537.6237623762377,203.87981924032084 594.059405940594,203.87981924032084" stroke="#268bd2" stroke-opacity="0.5" stroke-width="0.44782803403495564"/><path transform="translate(0,0)" d="M481.1881188118812,55.095061678133796C537.6237623762377,55.095061678133796 537.6237623762377,89.6103896103896 594.059405940594,89.6103896103896" stroke="#268bd2" stroke-opacity="0.5" stroke-width="0.2442698367462981"/><path transform="translate(0,0)" d="M481.1881188118812,43.77722590888735C537.6237623762377,43.77722590888735 537.6237623762377,44.48967959939748 594.059405940594,44.48967959939748" stroke="#268bd2" stroke-opacity="0.5" stroke-width="22.39140170174653"/><path transform="translate(0,0)" d="M481.1881188118812,0.9160118877987178C537.6237623762377,0.9160118877987178 537.6237623762377,1.0177909864430124 594.059405940594,1.0177909864430124" stroke="#6c71c4" stroke-opacity="0.5" stroke-width="0.9363677075276087"/></g><g class="mark-rect role-mark" role="graphics-symbol" aria-roledescription="rect mark container"><path d="M-45.3515625,138L-10,138C-7.7923399020240005,138,-6,139.792339902024,-6,142L-6,150C-6,152.207660097976,-7.7923399020240005,154,-10,154L-45.3515625,154C-47.559222597976,154,-49.3515625,152.207660097976,-49.3515625,150L-49.3515625,142C-49.3515625,139.792339902024,-47.559222597976,138,-45.3515625,138Z" fill="#4c78a8" opacity="0"/><path d="M68.77867806311882,251.35952448805114L108.81188118811882,251.35952448805114C111.01954128609482,251.35952448805114,112.81188118811882,253.15186439007513,112.81188118811882,255.35952448805114L112.81188118811882,263.35952448805114C112.81188118811882,265.5671845860271,111.01954128609482,267.35952448805114,108.81188118811882,267.35952448805114L68.77867806311882,267.35952448805114C66.57101796514281,267.35952448805114,64.77867806311882,265.5671845860271,64.77867806311882,263.35952448805114L64.77867806311882,255.35952448805114C64.77867806311882,253.15186439007513,66.57101796514281,251.35952448805114,68.77867806311882,251.35952448805114Z" fill="#4c78a8" opacity="0"/><path d="M73.46031868811882,122.59675121117127L108.81188118811882,122.59675121117127C111.01954128609482,122.59675121117127,112.81188118811882,124.38909111319526,112.81188118811882,126.59675121117127L112.81188118811882,134.59675121117127C112.81188118811882,136.80441130914727,111.01954128609482,138.59675121117127,108.81188118811882,138.59675121117127L73.46031868811882,138.59675121117127C71.25265859014281,138.59675121117127,69.46031868811882,136.80441130914727,69.46031868811882,134.59675121117127L69.46031868811882,126.59675121117127C69.46031868811882,124.38909111319526,71.25265859014281,122.59675121117127,73.46031868811882,122.59675121117127Z" fill="#4c78a8" opacity="0"/><path d="M60.78649056311882,24.917314660261354L108.81188118811882,24.917314660261354C111.01954128609482,24.917314660261354,112.81188118811882,26.709654562285355,112.81188118811882,28.917314660261354L112.81188118811882,36.917314660261354C112.81188118811882,39.12497475823736,111.01954128609482,40.917314660261354,108.81188118811882,40.917314660261354L60.78649056311882,40.917314660261354C58.578830465142815,40.917314660261354,56.78649056311882,39.12497475823736,56.78649056311882,36.917314660261354L56.78649056311882,28.917314660261354C56.78649056311882,26.709654562285355,58.578830465142815,24.917314660261354,60.78649056311882,24.917314660261354Z" fill="#4c78a8" opacity="0"/><path d="M90.14195931311882,-11.715018523795962L108.81188118811882,-11.715018523795962C111.01954128609482,-11.715018523795962,112.81188118811882,-9.922678621771961,112.81188118811882,-7.715018523795962L112.81188118811882,0.28498147620403813C112.81188118811882,2.492641574180038,111.01954128609482,4.284981476204038,108.81188118811882,4.284981476204038L90.14195931311882,4.284981476204038C87.93429921514281,4.284981476204038,86.14195931311882,2.492641574180038,86.14195931311882,0.28498147620403813L86.14195931311882,-7.715018523795962C86.14195931311882,-9.922678621771961,87.93429921514281,-11.715018523795962,90.14195931311882,-11.715018523795962Z" fill="#4c78a8" opacity="0"/><path d="M187.59055925123764,245.53776004559705L227.62376237623764,245.53776004559705C229.83142247421364,245.53776004559705,231.62376237623764,247.33009994762105,231.62376237623764,249.53776004559705L231.62376237623764,257.53776004559705C231.62376237623764,259.745420143573,229.83142247421364,261.53776004559705,227.62376237623764,261.53776004559705L187.59055925123764,261.53776004559705C185.38289915326163,261.53776004559705,183.59055925123764,259.745420143573,183.59055925123764,257.53776004559705L183.59055925123764,249.53776004559705C183.59055925123764,247.33009994762105,185.38289915326163,245.53776004559705,187.59055925123764,245.53776004559705Z" fill="#4c78a8" opacity="0"/><path d="M192.27219987623764,118.38309652729717L227.62376237623764,118.38309652729717C229.83142247421364,118.38309652729717,231.62376237623764,120.17543642932117,231.62376237623764,122.38309652729717L231.62376237623764,130.38309652729717C231.62376237623764,132.59075662527317,229.83142247421364,134.38309652729717,227.62376237623764,134.38309652729717L192.27219987623764,134.38309652729717C190.06453977826163,134.38309652729717,188.27219987623764,132.59075662527317,188.27219987623764,130.38309652729717L188.27219987623764,122.38309652729717C188.27219987623764,120.17543642932117,190.06453977826163,118.38309652729717,192.27219987623764,118.38309652729717Z" fill="#4c78a8" opacity="0"/><path d="M179.59837175123764,26.68827097667222L227.62376237623764,26.68827097667222C229.83142247421364,26.68827097667222,231.62376237623764,28.480610878696222,231.62376237623764,30.68827097667222L231.62376237623764,38.68827097667222C231.62376237623764,40.895931074648225,229.83142247421364,42.68827097667222,227.62376237623764,42.68827097667222L179.59837175123764,42.68827097667222C177.39071165326163,42.68827097667222,175.59837175123764,40.895931074648225,175.59837175123764,38.68827097667222L175.59837175123764,30.68827097667222C175.59837175123764,28.480610878696222,177.39071165326163,26.68827097667222,179.59837175123764,26.68827097667222Z" fill="#4c78a8" opacity="0"/><path d="M208.95384050123764,-11.674306884338238L227.62376237623764,-11.674306884338238C229.83142247421364,-11.674306884338238,231.62376237623764,-9.881966982314237,231.62376237623764,-7.674306884338238L231.62376237623764,0.3256931156617622C231.62376237623764,2.533353213637762,229.83142247421364,4.325693115661762,227.62376237623764,4.325693115661762L208.95384050123764,4.325693115661762C206.74618040326163,4.325693115661762,204.95384050123764,2.533353213637762,204.95384050123764,0.3256931156617622L204.95384050123764,-7.674306884338238C204.95384050123764,-9.881966982314237,206.74618040326163,-11.674306884338238,208.95384050123764,-11.674306884338238Z" fill="#4c78a8" opacity="0"/><path d="M306.40244043935644,241.16125880389203L346.43564356435644,241.16125880389203C348.6433036623324,241.16125880389203,350.43564356435644,242.95359870591602,350.43564356435644,245.16125880389203L350.43564356435644,253.161258803892C350.43564356435644,255.368918901868,348.6433036623324,257.161258803892,346.43564356435644,257.161258803892L306.40244043935644,257.161258803892C304.19478034138046,257.161258803892,302.40244043935644,255.368918901868,302.40244043935644,253.161258803892L302.40244043935644,245.16125880389203C302.40244043935644,242.95359870591602,304.19478034138046,241.16125880389203,306.40244043935644,241.16125880389203Z" fill="#4c78a8" opacity="0"/><path d="M311.08408106435644,115.87933070064733L346.43564356435644,115.87933070064733C348.6433036623324,115.87933070064733,350.43564356435644,117.67167060267133,350.43564356435644,119.87933070064733L350.43564356435644,127.87933070064733C350.43564356435644,130.08699079862333,348.6433036623324,131.87933070064733,346.43564356435644,131.87933070064733L311.08408106435644,131.87933070064733C308.87642096638046,131.87933070064733,307.08408106435644,130.08699079862333,307.08408106435644,127.87933070064733L307.08408106435644,119.87933070064733C307.08408106435644,117.67167060267133,308.87642096638046,115.87933070064733,311.08408106435644,115.87933070064733Z" fill="#4c78a8" opacity="0"/><path d="M298.41025293935644,28.703497129829437L346.43564356435644,28.703497129829437C348.6433036623324,28.703497129829437,350.43564356435644,30.495837031853437,350.43564356435644,32.70349712982944L350.43564356435644,40.70349712982944C350.43564356435644,42.91115722780544,348.6433036623324,44.70349712982944,346.43564356435644,44.70349712982944L298.41025293935644,44.70349712982944C296.20259284138046,44.70349712982944,294.41025293935644,42.91115722780544,294.41025293935644,40.70349712982944L294.41025293935644,32.70349712982944C294.41025293935644,30.495837031853437,296.20259284138046,28.703497129829437,298.41025293935644,28.703497129829437Z" fill="#4c78a8" opacity="0"/><path d="M327.76572168935644,-11.491104506778495L346.43564356435644,-11.491104506778495C348.6433036623324,-11.491104506778495,350.43564356435644,-9.698764604754494,350.43564356435644,-7.491104506778495L350.43564356435644,0.5088954932215053C350.43564356435644,2.7165555911975052,348.6433036623324,4.508895493221505,346.43564356435644,4.508895493221505L327.76572168935644,4.508895493221505C325.55806159138046,4.508895493221505,323.76572168935644,2.7165555911975052,323.76572168935644,0.5088954932215053L323.76572168935644,-7.491104506778495C323.76572168935644,-9.698764604754494,325.55806159138046,-11.491104506778495,327.76572168935644,-11.491104506778495Z" fill="#4c78a8" opacity="0"/><path d="M425.2143216274753,238.5964255180556L465.2475247524753,238.5964255180556C467.45518485045125,238.5964255180556,469.2475247524753,240.3887654200796,469.2475247524753,242.5964255180556L469.2475247524753,250.5964255180556C469.2475247524753,252.8040856160316,467.45518485045125,254.5964255180556,465.2475247524753,254.5964255180556L425.2143216274753,254.5964255180556C423.0066615294993,254.5964255180556,421.2143216274753,252.8040856160316,421.2143216274753,250.5964255180556L421.2143216274753,242.5964255180556C421.2143216274753,240.3887654200796,423.0066615294993,238.5964255180556,425.2143216274753,238.5964255180556Z" fill="#4c78a8" opacity="0"/><path d="M429.8959622524753,116.65285185034404L465.2475247524753,116.65285185034404C467.45518485045125,116.65285185034404,469.2475247524753,118.44519175236803,469.2475247524753,120.65285185034404L469.2475247524753,128.65285185034404C469.2475247524753,130.86051194832004,467.45518485045125,132.65285185034404,465.2475247524753,132.65285185034404L429.8959622524753,132.65285185034404C427.6883021544993,132.65285185034404,425.8959622524753,130.86051194832004,425.8959622524753,128.65285185034404L425.8959622524753,120.65285185034404C425.8959622524753,118.44519175236803,427.6883021544993,116.65285185034404,429.8959622524753,116.65285185034404Z" fill="#4c78a8" opacity="0"/><path d="M417.2221341274753,32.04185156536254L465.2475247524753,32.04185156536254C467.45518485045125,32.04185156536254,469.2475247524753,33.83419146738654,469.2475247524753,36.04185156536254L469.2475247524753,44.04185156536254C469.2475247524753,46.249511663338545,467.45518485045125,48.04185156536254,465.2475247524753,48.04185156536254L417.2221341274753,48.04185156536254C415.0144740294993,48.04185156536254,413.2221341274753,46.249511663338545,413.2221341274753,44.04185156536254L413.2221341274753,36.04185156536254C413.2221341274753,33.83419146738654,415.0144740294993,32.04185156536254,417.2221341274753,32.04185156536254Z" fill="#4c78a8" opacity="0"/><path d="M446.5776028774753,-11.083988112201283L465.2475247524753,-11.083988112201283C467.45518485045125,-11.083988112201283,469.2475247524753,-9.291648210177282,469.2475247524753,-7.083988112201283L469.2475247524753,0.9160118877987173C469.2475247524753,3.1236719857747173,467.45518485045125,4.916011887798717,465.2475247524753,4.916011887798717L446.5776028774753,4.916011887798717C444.3699427794993,4.916011887798717,442.5776028774753,3.1236719857747173,442.5776028774753,0.9160118877987173L442.5776028774753,-7.083988112201283C442.5776028774753,-9.291648210177282,444.3699427794993,-11.083988112201283,446.5776028774753,-11.083988112201283Z" fill="#4c78a8" opacity="0"/><path d="M610,239.55314904531204L650.033203125,239.55314904531204C652.240863222976,239.55314904531204,654.033203125,241.34548894733604,654.033203125,243.55314904531204L654.033203125,251.55314904531204C654.033203125,253.76080914328804,652.240863222976,255.55314904531204,650.033203125,255.55314904531204L610,255.55314904531204C607.792339902024,255.55314904531204,606,253.76080914328804,606,251.55314904531204L606,243.55314904531204C606,241.34548894733604,607.792339902024,239.55314904531204,610,239.55314904531204Z" fill="#4c78a8" opacity="0"/><path d="M610,119.05483857834955L645.3515625,119.05483857834955C647.559222597976,119.05483857834955,649.3515625,120.84717848037354,649.3515625,123.05483857834955L649.3515625,131.05483857834955C649.3515625,133.26249867632555,647.559222597976,135.05483857834955,645.3515625,135.05483857834955L610,135.05483857834955C607.792339902024,135.05483857834955,606,133.26249867632555,606,131.05483857834955L606,123.05483857834955C606,120.84717848037354,607.792339902024,119.05483857834955,610,119.05483857834955Z" fill="#4c78a8" opacity="0"/><path d="M610,33.87387534095998L658.025390625,33.87387534095998C660.233050722976,33.87387534095998,662.025390625,35.666215242983974,662.025390625,37.87387534095998L662.025390625,45.87387534095998C662.025390625,48.08153543893598,660.233050722976,49.87387534095998,658.025390625,49.87387534095998L610,49.87387534095998C607.792339902024,49.87387534095998,606,48.08153543893598,606,45.87387534095998L606,37.87387534095998C606,35.666215242983974,607.792339902024,33.87387534095998,610,33.87387534095998Z" fill="#4c78a8" opacity="0"/><path d="M610,-10.595448438708623L628.669921875,-10.595448438708623C630.877581972976,-10.595448438708623,632.669921875,-8.803108536684622,632.669921875,-6.5954484387086225L632.669921875,1.4045515612913775C632.669921875,3.6122116592673774,630.877581972976,5.4045515612913775,628.669921875,5.4045515612913775L610,5.4045515612913775C607.792339902024,5.4045515612913775,606,3.6122116592673774,606,1.4045515612913775L606,-6.5954484387086225C606,-8.803108536684622,607.792339902024,-10.595448438708623,610,-10.595448438708623Z" fill="#4c78a8" opacity="0"/></g><g class="mark-group role-scope labelText" role="graphics-object" aria-roledescription="group mark container"><g transform="translate(-8,150)"><path class="background" aria-hidden="true" d="M0,0h0v0h0Z" fill-opacity="1"/><g><g class="mark-text role-mark headingOutline" role="graphics-object" aria-roledescription="text mark container"><text text-anchor="end" transform="translate(0,0)" font-family="sans-serif" font-size="12px" font-weight="normal" stroke="#fdf6e3" stroke-opacity="1" stroke-width="3">Utenfor</text></g><g class="mark-text role-mark heading" role="graphics-object" aria-roledescription="text mark container"><text text-anchor="end" transform="translate(0,0)" font-family="sans-serif" font-size="12px" font-weight="normal" fill="#657b83" fill-opacity="1">Utenfor</text></g></g><path class="foreground" aria-hidden="true" d="" display="none"/></g><g transform="translate(110.81188118811882,263.35952448805114)"><path class="background" aria-hidden="true" d="M0,0h0v0h0Z" fill-opacity="1"/><g><g class="mark-text role-mark headingOutline" role="graphics-object" aria-roledescription="text mark container"><text text-anchor="end" transform="translate(0,0)" font-family="sans-serif" font-size="12px" font-weight="normal" stroke="#fdf6e3" stroke-opacity="1" stroke-width="3">Innenfor</text></g><g class="mark-text role-mark heading" role="graphics-object" aria-roledescription="text mark container"><text text-anchor="end" transform="translate(0,0)" font-family="sans-serif" font-size="12px" font-weight="normal" fill="#657b83" fill-opacity="1">Innenfor</text></g></g><path class="foreground" aria-hidden="true" d="" display="none"/></g><g transform="translate(110.81188118811882,134.59675121117127)"><path class="background" aria-hidden="true" d="M0,0h0v0h0Z" fill-opacity="1"/><g><g class="mark-text role-mark headingOutline" role="graphics-object" aria-roledescription="text mark container"><text text-anchor="end" transform="translate(0,0)" font-family="sans-serif" font-size="12px" font-weight="normal" stroke="#fdf6e3" stroke-opacity="1" stroke-width="3">Utenfor</text></g><g class="mark-text role-mark heading" role="graphics-object" aria-roledescription="text mark container"><text text-anchor="end" transform="translate(0,0)" font-family="sans-serif" font-size="12px" font-weight="normal" fill="#657b83" fill-opacity="1">Utenfor</text></g></g><path class="foreground" aria-hidden="true" d="" display="none"/></g><g transform="translate(110.81188118811882,36.917314660261354)"><path class="background" aria-hidden="true" d="M0,0h0v0h0Z" fill-opacity="1"/><g><g class="mark-text role-mark headingOutline" role="graphics-object" aria-roledescription="text mark container"><text text-anchor="end" transform="translate(0,0)" font-family="sans-serif" font-size="12px" font-weight="normal" stroke="#fdf6e3" stroke-opacity="1" stroke-width="3">Utvandret</text></g><g class="mark-text role-mark heading" role="graphics-object" aria-roledescription="text mark container"><text text-anchor="end" transform="translate(0,0)" font-family="sans-serif" font-size="12px" font-weight="normal" fill="#657b83" fill-opacity="1">Utvandret</text></g></g><path class="foreground" aria-hidden="true" d="" display="none"/></g><g transform="translate(110.81188118811882,0.28498147620403813)"><path class="background" aria-hidden="true" d="M0,0h0v0h0Z" fill-opacity="1"/><g><g class="mark-text role-mark headingOutline" role="graphics-object" aria-roledescription="text mark container"><text text-anchor="end" transform="translate(0,0)" font-family="sans-serif" font-size="12px" font-weight="normal" stroke="#fdf6e3" stroke-opacity="1" stroke-width="3">Død</text></g><g class="mark-text role-mark heading" role="graphics-object" aria-roledescription="text mark container"><text text-anchor="end" transform="translate(0,0)" font-family="sans-serif" font-size="12px" font-weight="normal" fill="#657b83" fill-opacity="1">Død</text></g></g><path class="foreground" aria-hidden="true" d="" display="none"/></g><g transform="translate(229.62376237623764,257.53776004559705)"><path class="background" aria-hidden="true" d="M0,0h0v0h0Z" fill-opacity="1"/><g><g class="mark-text role-mark headingOutline" role="graphics-object" aria-roledescription="text mark container"><text text-anchor="end" transform="translate(0,0)" font-family="sans-serif" font-size="12px" font-weight="normal" stroke="#fdf6e3" stroke-opacity="1" stroke-width="3">Innenfor</text></g><g class="mark-text role-mark heading" role="graphics-object" aria-roledescription="text mark container"><text text-anchor="end" transform="translate(0,0)" font-family="sans-serif" font-size="12px" font-weight="normal" fill="#657b83" fill-opacity="1">Innenfor</text></g></g><path class="foreground" aria-hidden="true" d="" display="none"/></g><g transform="translate(229.62376237623764,130.38309652729717)"><path class="background" aria-hidden="true" d="M0,0h0v0h0Z" fill-opacity="1"/><g><g class="mark-text role-mark headingOutline" role="graphics-object" aria-roledescription="text mark container"><text text-anchor="end" transform="translate(0,0)" font-family="sans-serif" font-size="12px" font-weight="normal" stroke="#fdf6e3" stroke-opacity="1" stroke-width="3">Utenfor</text></g><g class="mark-text role-mark heading" role="graphics-object" aria-roledescription="text mark container"><text text-anchor="end" transform="translate(0,0)" font-family="sans-serif" font-size="12px" font-weight="normal" fill="#657b83" fill-opacity="1">Utenfor</text></g></g><path class="foreground" aria-hidden="true" d="" display="none"/></g><g transform="translate(229.62376237623764,38.68827097667222)"><path class="background" aria-hidden="true" d="M0,0h0v0h0Z" fill-opacity="1"/><g><g class="mark-text role-mark headingOutline" role="graphics-object" aria-roledescription="text mark container"><text text-anchor="end" transform="translate(0,0)" font-family="sans-serif" font-size="12px" font-weight="normal" stroke="#fdf6e3" stroke-opacity="1" stroke-width="3">Utvandret</text></g><g class="mark-text role-mark heading" role="graphics-object" aria-roledescription="text mark container"><text text-anchor="end" transform="translate(0,0)" font-family="sans-serif" font-size="12px" font-weight="normal" fill="#657b83" fill-opacity="1">Utvandret</text></g></g><path class="foreground" aria-hidden="true" d="" display="none"/></g><g transform="translate(229.62376237623764,0.3256931156617626)"><path class="background" aria-hidden="true" d="M0,0h0v0h0Z" fill-opacity="1"/><g><g class="mark-text role-mark headingOutline" role="graphics-object" aria-roledescription="text mark container"><text text-anchor="end" transform="translate(0,0)" font-family="sans-serif" font-size="12px" font-weight="normal" stroke="#fdf6e3" stroke-opacity="1" stroke-width="3">Død</text></g><g class="mark-text role-mark heading" role="graphics-object" aria-roledescription="text mark container"><text text-anchor="end" transform="translate(0,0)" font-family="sans-serif" font-size="12px" font-weight="normal" fill="#657b83" fill-opacity="1">Død</text></g></g><path class="foreground" aria-hidden="true" d="" display="none"/></g><g transform="translate(348.43564356435644,253.16125880389203)"><path class="background" aria-hidden="true" d="M0,0h0v0h0Z" fill-opacity="1"/><g><g class="mark-text role-mark headingOutline" role="graphics-object" aria-roledescription="text mark container"><text text-anchor="end" transform="translate(0,0)" font-family="sans-serif" font-size="12px" font-weight="normal" stroke="#fdf6e3" stroke-opacity="1" stroke-width="3">Innenfor</text></g><g class="mark-text role-mark heading" role="graphics-object" aria-roledescription="text mark container"><text text-anchor="end" transform="translate(0,0)" font-family="sans-serif" font-size="12px" font-weight="normal" fill="#657b83" fill-opacity="1">Innenfor</text></g></g><path class="foreground" aria-hidden="true" d="" display="none"/></g><g transform="translate(348.43564356435644,127.87933070064733)"><path class="background" aria-hidden="true" d="M0,0h0v0h0Z" fill-opacity="1"/><g><g class="mark-text role-mark headingOutline" role="graphics-object" aria-roledescription="text mark container"><text text-anchor="end" transform="translate(0,0)" font-family="sans-serif" font-size="12px" font-weight="normal" stroke="#fdf6e3" stroke-opacity="1" stroke-width="3">Utenfor</text></g><g class="mark-text role-mark heading" role="graphics-object" aria-roledescription="text mark container"><text text-anchor="end" transform="translate(0,0)" font-family="sans-serif" font-size="12px" font-weight="normal" fill="#657b83" fill-opacity="1">Utenfor</text></g></g><path class="foreground" aria-hidden="true" d="" display="none"/></g><g transform="translate(348.43564356435644,40.70349712982944)"><path class="background" aria-hidden="true" d="M0,0h0v0h0Z" fill-opacity="1"/><g><g class="mark-text role-mark headingOutline" role="graphics-object" aria-roledescription="text mark container"><text text-anchor="end" transform="translate(0,0)" font-family="sans-serif" font-size="12px" font-weight="normal" stroke="#fdf6e3" stroke-opacity="1" stroke-width="3">Utvandret</text></g><g class="mark-text role-mark heading" role="graphics-object" aria-roledescription="text mark container"><text text-anchor="end" transform="translate(0,0)" font-family="sans-serif" font-size="12px" font-weight="normal" fill="#657b83" fill-opacity="1">Utvandret</text></g></g><path class="foreground" aria-hidden="true" d="" display="none"/></g><g transform="translate(348.43564356435644,0.5088954932215062)"><path class="background" aria-hidden="true" d="M0,0h0v0h0Z" fill-opacity="1"/><g><g class="mark-text role-mark headingOutline" role="graphics-object" aria-roledescription="text mark container"><text text-anchor="end" transform="translate(0,0)" font-family="sans-serif" font-size="12px" font-weight="normal" stroke="#fdf6e3" stroke-opacity="1" stroke-width="3">Død</text></g><g class="mark-text role-mark heading" role="graphics-object" aria-roledescription="text mark container"><text text-anchor="end" transform="translate(0,0)" font-family="sans-serif" font-size="12px" font-weight="normal" fill="#657b83" fill-opacity="1">Død</text></g></g><path class="foreground" aria-hidden="true" d="" display="none"/></g><g transform="translate(467.2475247524753,250.5964255180556)"><path class="background" aria-hidden="true" d="M0,0h0v0h0Z" fill-opacity="1"/><g><g class="mark-text role-mark headingOutline" role="graphics-object" aria-roledescription="text mark container"><text text-anchor="end" transform="translate(0,0)" font-family="sans-serif" font-size="12px" font-weight="normal" stroke="#fdf6e3" stroke-opacity="1" stroke-width="3">Innenfor</text></g><g class="mark-text role-mark heading" role="graphics-object" aria-roledescription="text mark container"><text text-anchor="end" transform="translate(0,0)" font-family="sans-serif" font-size="12px" font-weight="normal" fill="#657b83" fill-opacity="1">Innenfor</text></g></g><path class="foreground" aria-hidden="true" d="" display="none"/></g><g transform="translate(467.2475247524753,128.65285185034404)"><path class="background" aria-hidden="true" d="M0,0h0v0h0Z" fill-opacity="1"/><g><g class="mark-text role-mark headingOutline" role="graphics-object" aria-roledescription="text mark container"><text text-anchor="end" transform="translate(0,0)" font-family="sans-serif" font-size="12px" font-weight="normal" stroke="#fdf6e3" stroke-opacity="1" stroke-width="3">Utenfor</text></g><g class="mark-text role-mark heading" role="graphics-object" aria-roledescription="text mark container"><text text-anchor="end" transform="translate(0,0)" font-family="sans-serif" font-size="12px" font-weight="normal" fill="#657b83" fill-opacity="1">Utenfor</text></g></g><path class="foreground" aria-hidden="true" d="" display="none"/></g><g transform="translate(467.2475247524753,44.04185156536254)"><path class="background" aria-hidden="true" d="M0,0h0v0h0Z" fill-opacity="1"/><g><g class="mark-text role-mark headingOutline" role="graphics-object" aria-roledescription="text mark container"><text text-anchor="end" transform="translate(0,0)" font-family="sans-serif" font-size="12px" font-weight="normal" stroke="#fdf6e3" stroke-opacity="1" stroke-width="3">Utvandret</text></g><g class="mark-text role-mark heading" role="graphics-object" aria-roledescription="text mark container"><text text-anchor="end" transform="translate(0,0)" font-family="sans-serif" font-size="12px" font-weight="normal" fill="#657b83" fill-opacity="1">Utvandret</text></g></g><path class="foreground" aria-hidden="true" d="" display="none"/></g><g transform="translate(467.2475247524753,0.9160118877987178)"><path class="background" aria-hidden="true" d="M0,0h0v0h0Z" fill-opacity="1"/><g><g class="mark-text role-mark headingOutline" role="graphics-object" aria-roledescription="text mark container"><text text-anchor="end" transform="translate(0,0)" font-family="sans-serif" font-size="12px" font-weight="normal" stroke="#fdf6e3" stroke-opacity="1" stroke-width="3">Død</text></g><g class="mark-text role-mark heading" role="graphics-object" aria-roledescription="text mark container"><text text-anchor="end" transform="translate(0,0)" font-family="sans-serif" font-size="12px" font-weight="normal" fill="#657b83" fill-opacity="1">Død</text></g></g><path class="foreground" aria-hidden="true" d="" display="none"/></g><g transform="translate(608,251.55314904531204)"><path class="background" aria-hidden="true" d="M0,0h0v0h0Z" fill-opacity="1"/><g><g class="mark-text role-mark headingOutline" role="graphics-object" aria-roledescription="text mark container"><text text-anchor="start" transform="translate(0,0)" font-family="sans-serif" font-size="12px" font-weight="normal" stroke="#fdf6e3" stroke-opacity="1" stroke-width="3">Innenfor</text></g><g class="mark-text role-mark heading" role="graphics-object" aria-roledescription="text mark container"><text text-anchor="start" transform="translate(0,0)" font-family="sans-serif" font-size="12px" font-weight="normal" fill="#657b83" fill-opacity="1">Innenfor</text></g></g><path class="foreground" aria-hidden="true" d="" display="none"/></g><g transform="translate(608,131.05483857834955)"><path class="background" aria-hidden="true" d="M0,0h0v0h0Z" fill-opacity="1"/><g><g class="mark-text role-mark headingOutline" role="graphics-object" aria-roledescription="text mark container"><text text-anchor="start" transform="translate(0,0)" font-family="sans-serif" font-size="12px" font-weight="normal" stroke="#fdf6e3" stroke-opacity="1" stroke-width="3">Utenfor</text></g><g class="mark-text role-mark heading" role="graphics-object" aria-roledescription="text mark container"><text text-anchor="start" transform="translate(0,0)" font-family="sans-serif" font-size="12px" font-weight="normal" fill="#657b83" fill-opacity="1">Utenfor</text></g></g><path class="foreground" aria-hidden="true" d="" display="none"/></g><g transform="translate(608,45.87387534095998)"><path class="background" aria-hidden="true" d="M0,0h0v0h0Z" fill-opacity="1"/><g><g class="mark-text role-mark headingOutline" role="graphics-object" aria-roledescription="text mark container"><text text-anchor="start" transform="translate(0,0)" font-family="sans-serif" font-size="12px" font-weight="normal" stroke="#fdf6e3" stroke-opacity="1" stroke-width="3">Utvandret</text></g><g class="mark-text role-mark heading" role="graphics-object" aria-roledescription="text mark container"><text text-anchor="start" transform="translate(0,0)" font-family="sans-serif" font-size="12px" font-weight="normal" fill="#657b83" fill-opacity="1">Utvandret</text></g></g><path class="foreground" aria-hidden="true" d="" display="none"/></g><g transform="translate(608,1.4045515612913784)"><path class="background" aria-hidden="true" d="M0,0h0v0h0Z" fill-opacity="1"/><g><g class="mark-text role-mark headingOutline" role="graphics-object" aria-roledescription="text mark container"><text text-anchor="start" transform="translate(0,0)" font-family="sans-serif" font-size="12px" font-weight="normal" stroke="#fdf6e3" stroke-opacity="1" stroke-width="3">Død</text></g><g class="mark-text role-mark heading" role="graphics-object" aria-roledescription="text mark container"><text text-anchor="start" transform="translate(0,0)" font-family="sans-serif" font-size="12px" font-weight="normal" fill="#657b83" fill-opacity="1">Død</text></g></g><path class="foreground" aria-hidden="true" d="" display="none"/></g></g></g><path class="foreground" aria-hidden="true" d="" display="none"/></g></g></g><defs><clipPath id="clip30"><rect x="0" y="0" width="600" height="300"/></clipPath></defs></svg>