<svg xmlns="http://www.w3.org/2000/svg" xmlns:xlink="http://www.w3.org/1999/xlink" version="1.1" class="marks" width="1482" height="648" viewBox="0 0 741 324"><rect width="741" height="324" fill="#ffffff"/><g fill="none" stroke-miterlimit="10" transform="translate(67,11)"><g class="mark-group role-frame root" role="graphics-object" aria-roledescription="group mark container"><g transform="translate(0,0)"><path class="background" aria-hidden="true" d="M0,0h600v300h-600Z" fill="#ffffff"/><g><g class="mark-group role-axis" role="graphics-symbol" aria-roledescription="axis" aria-label="X-axis for a discrete scale with 6 values: 1, 2, 3, 4, 5, 6"><g transform="translate(0.5,300.5)"><path class="background" aria-hidden="true" d="M0,0h0v0h0Z" pointer-events="none"/><g><g class="mark-rule role-axis-grid" pointer-events="none"><line transform="translate(2,0)" x2="0" y2="-300" stroke="#e0e0e0" stroke-width="1" opacity="1"/><line transform="translate(121,0)" x2="0" y2="-300" stroke="#e0e0e0" stroke-width="1" opacity="1"/><line transform="translate(240,0)" x2="0" y2="-300" stroke="#e0e0e0" stroke-width="1" opacity="1"/><line transform="translate(359,0)" x2="0" y2="-300" stroke="#e0e0e0" stroke-width="1" opacity="1"/><line transform="translate(478,0)" x2="0" y2="-300" stroke="#e0e0e0" stroke-width="1" opacity="1"/><line transform="translate(597,0)" x2="0" y2="-300" stroke="#e0e0e0" stroke-width="1" opacity="1"/></g><g class="mark-text role-axis-label" pointer-events="none"><text text-anchor="middle" transform="translate(2.470297029702973,11)" font-family="IBM Plex Sans Condensed, system-ui, -apple-system, BlinkMacSystemFont, &quot;.SFNSText-Regular&quot;, sans-serif" font-size="12px" font-weight="400" fill="#525252" opacity="1">2018</text><text text-anchor="middle" transform="translate(121.2821782178218,11)" font-family="IBM Plex Sans Condensed, system-ui, -apple-system, BlinkMacSystemFont, &quot;.SFNSText-Regular&quot;, sans-serif" font-size="12px" font-weight="400" fill="#525252" opacity="1">2019</text><text text-anchor="middle" transform="translate(240.0940594059406,11)" font-family="IBM Plex Sans Condensed, system-ui, -apple-system, BlinkMacSystemFont, &quot;.SFNSText-Regular&quot;, sans-serif" font-size="12px" font-weight="400" fill="#525252" opacity="1">2020</text><text text-anchor="middle" transform="translate(358.9059405940594,11)" font-family="IBM Plex Sans Condensed, system-ui, -apple-system, BlinkMacSystemFont, &quot;.SFNSText-Regular&quot;, sans-serif" font-size="12px" font-weight="400" fill="#525252" opacity="1">2021</text><text text-anchor="middle" transform="translate(477.71782178217825,11)" font-family="IBM Plex Sans Condensed, system-ui, -apple-system, BlinkMacSystemFont, &quot;.SFNSText-Regular&quot;, sans-serif" font-size="12px" font-weight="400" fill="#525252" opacity="1">2022</text><text text-anchor="middle" transform="translate(596.529702970297,11)" font-family="IBM Plex Sans Condensed, system-ui, -apple-system, BlinkMacSystemFont, &quot;.SFNSText-Regular&quot;, sans-serif" font-size="12px" font-weight="400" fill="#525252" opacity="1">2023</text></g></g><path class="foreground" aria-hidden="true" d="" pointer-events="none" display="none"/></g></g><g class="mark-rect role-mark" role="graphics-symbol" aria-roledescription="rect mark container"><path d="M0,87.6547154651813h5.940594059405946v181.310801776198h-5.940594059405946Z" fill="#6929c4" fill-opacity="1" stroke="#6929c4" stroke-width="0"/><path d="M118.81188118811882,119.8121789451232h5.940594059405946v180.1878210548768h-5.940594059405946Z" fill="#6929c4" fill-opacity="1" stroke="#6929c4" stroke-width="0"/><path d="M118.81188118811882,64.77018941447346h5.940594059405946v24.007506772029018h-5.940594059405946Z" fill="#1192e8" fill-opacity="1" stroke="#1192e8" stroke-width="0"/><path d="M118.81188118811882,31.155886079844596h5.940594059405946v2.579820576008185h-5.940594059405946Z" fill="#005d5d" fill-opacity="1" stroke="#005d5d" stroke-width="0"/><path d="M118.81188118811882,0h5.940594059405946v0.12140332122391184h-5.940594059405946Z" fill="#9f1853" fill-opacity="1" stroke="#9f1853" stroke-width="0"/><path d="M0,31.034482758620683h5.940594059405946v25.585749947939895h-5.940594059405946Z" fill="#1192e8" fill-opacity="1" stroke="#1192e8" stroke-width="0"/><path d="M237.62376237623764,122.93831446663897h5.940594059405946v177.05662706164333h-5.940594059405946Z" fill="#6929c4" fill-opacity="1" stroke="#6929c4" stroke-width="0"/><path d="M237.62376237623764,65.87293624892403h5.940594059405946v26.03089545909424h-5.940594059405946Z" fill="#1192e8" fill-opacity="1" stroke="#1192e8" stroke-width="0"/><path d="M237.62376237623764,31.1862369101506h5.940594059405946v3.6522165801527215h-5.940594059405946Z" fill="#005d5d" fill-opacity="1" stroke="#005d5d" stroke-width="0"/><path d="M237.62376237623764,0.005058471717667157h5.940594059405946v0.14669567981221432h-5.940594059405946Z" fill="#9f1853" fill-opacity="1" stroke="#9f1853" stroke-width="0"/><path d="M356.43564356435644,121.86844769835325h5.940594059405946v178.12902306578792h-5.940594059405946Z" fill="#6929c4" fill-opacity="1" stroke="#6929c4" stroke-width="0"/><path d="M356.43564356435644,66.84163358285652h5.940594059405946v23.992331356876008h-5.940594059405946Z" fill="#1192e8" fill-opacity="1" stroke="#1192e8" stroke-width="0"/><path d="M356.43564356435644,31.300052523797994h5.940594059405946v4.507098300437804h-5.940594059405946Z" fill="#005d5d" fill-opacity="1" stroke="#005d5d" stroke-width="0"/><path d="M356.43564356435644,0.002529235858816925h5.940594059405946v0.2630405293184923h-5.940594059405946Z" fill="#9f1853" fill-opacity="1" stroke="#9f1853" stroke-width="0"/><path d="M475.2475247524753,121.96455866098881h5.940594059405946v178.02279515971702h-5.940594059405946Z" fill="#6929c4" fill-opacity="1" stroke="#6929c4" stroke-width="0"/><path d="M475.2475247524753,68.35411662643777h5.940594059405946v22.57595927593036h-5.940594059405946Z" fill="#1192e8" fill-opacity="1" stroke="#1192e8" stroke-width="0"/><path d="M475.2475247524753,31.31016946723333h5.940594059405946v6.009464400583752h-5.940594059405946Z" fill="#005d5d" fill-opacity="1" stroke="#005d5d" stroke-width="0"/><path d="M475.2475247524753,0.012646179294151239h5.940594059405946v0.2630405293184923h-5.940594059405946Z" fill="#9f1853" fill-opacity="1" stroke="#9f1853" stroke-width="0"/><path d="M594.059405940594,124.44573903850258h5.940594059405946v175.49355930088544h-5.940594059405946Z" fill="#6929c4" fill-opacity="1" stroke="#6929c4" stroke-width="0"/><path d="M594.059405940594,69.32281396037024h5.940594059405946v24.088442319511614h-5.940594059405946Z" fill="#1192e8" fill-opacity="1" stroke="#1192e8" stroke-width="0"/><path d="M594.059405940594,31.580797704128305h5.940594059405946v6.707533497621252h-5.940594059405946Z" fill="#005d5d" fill-opacity="1" stroke="#005d5d" stroke-width="0"/><path d="M594.059405940594,0.060701660611972574h5.940594059405946v0.48561328489564737h-5.940594059405946Z" fill="#9f1853" fill-opacity="1" stroke="#9f1853" stroke-width="0"/></g><g class="mark-path role-mark links" clip-path="url(#clip21)" role="graphics-symbol" aria-roledescription="path mark container"><path transform="translate(0,0)" d="M5.940594059405946,183.3964096653905C62.37623762376238,183.3964096653905 62.37623762376238,214.43089242401123 118.81188118811882,214.43089242401123" stroke="#6929c4" stroke-opacity="0.5" stroke-width="171.13821515197756"/><path transform="translate(0,0)" d="M5.940594059405946,93.40113933644656C62.37623762376238,93.40113933644656 62.37623762376238,84.35153343354727 118.81188118811882,84.35153343354727" stroke="#6929c4" stroke-opacity="0.5" stroke-width="8.852325505910414"/><path transform="translate(0,0)" d="M5.940594059405946,88.35531379807762C62.37623762376238,88.35531379807762 62.37623762376238,33.11604387043907 118.81188118811882,33.11604387043907" stroke="#6929c4" stroke-opacity="0.5" stroke-width="1.239325570827475"/><path transform="translate(0,0)" d="M5.940594059405946,87.6951832389226C62.37623762376238,87.6951832389226 62.37623762376238,0.0809355474826079 118.81188118811882,0.0809355474826079" stroke="#6929c4" stroke-opacity="0.5" stroke-width="0.08093554748262477"/><path transform="translate(0,0)" d="M5.940594059405946,52.095429755110956C62.37623762376238,52.095429755110956 62.37623762376238,124.33698189657282 118.81188118811882,124.33698189657282" stroke="#1192e8" stroke-opacity="0.5" stroke-width="9.049605902899259"/><path transform="translate(0,0)" d="M5.940594059405946,39.993036170602025C62.37623762376238,39.993036170602025 62.37623762376238,72.34778004753278 118.81188118811882,72.34778004753278" stroke="#1192e8" stroke-opacity="0.5" stroke-width="15.155181266118632"/><path transform="translate(0,0)" d="M5.940594059405946,31.74519803495237C62.37623762376238,31.74519803495237 62.37623762376238,31.826133582434977 118.81188118811882,31.826133582434977" stroke="#1192e8" stroke-opacity="0.5" stroke-width="1.3404950051807418"/><path transform="translate(0,0)" d="M5.940594059405946,31.054716645491354C62.37623762376238,31.054716645491354 62.37623762376238,0.020233886870668627 118.81188118811882,0.020233886870668627" stroke="#1192e8" stroke-opacity="0.5" stroke-width="0.04046777374128396"/><path transform="translate(0,0)" d="M124.75247524752476,215.4147651730967C181.1881188118812,215.4147651730967 181.1881188118812,215.40970670137904 237.62376237623764,215.40970670137904" stroke="#6929c4" stroke-opacity="0.5" stroke-width="169.1704696538066"/><path transform="translate(0,0)" d="M124.75247524752476,125.76852939267145C181.1881188118812,125.76852939267145 181.1881188118812,86.84283075449638 237.62376237623764,86.84283075449638" stroke="#6929c4" stroke-opacity="0.5" stroke-width="10.122001907043796"/><path transform="translate(0,0)" d="M124.75247524752476,120.30537993759532C181.1881188118812,120.30537993759532 181.1881188118812,34.436304988749136 237.62376237623764,34.436304988749136" stroke="#6929c4" stroke-opacity="0.5" stroke-width="0.8042970031084451"/><path transform="translate(0,0)" d="M124.75247524752476,119.87540984159398C181.1881188118812,119.87540984159398 181.1881188118812,0.12393255708276207 237.62376237623764,0.12393255708276207" stroke="#6929c4" stroke-opacity="0.5" stroke-width="0.05564318889429387"/><path transform="translate(0,0)" d="M124.75247524752476,84.93072844521971C181.1881188118812,84.93072844521971 181.1881188118812,126.97750413319294 237.62376237623764,126.97750413319294" stroke="#1192e8" stroke-opacity="0.5" stroke-width="7.693935482565564"/><path transform="translate(0,0)" d="M124.75247524752476,73.16725246579419C181.1881188118812,73.16725246579419 181.1881188118812,73.86532156283172 237.62376237623764,73.86532156283172" stroke="#1192e8" stroke-opacity="0.5" stroke-width="15.83301647628548"/><path transform="translate(0,0)" d="M124.75247524752476,65.01805452863896C181.1881188118812,65.01805452863896 181.1881188118812,33.80146678818239 237.62376237623764,33.80146678818239" stroke="#1192e8" stroke-opacity="0.5" stroke-width="0.46537939802499295"/><path transform="translate(0,0)" d="M124.75247524752476,33.639595693217174C181.1881188118812,33.639595693217174 181.1881188118812,123.03442542927458 237.62376237623764,123.03442542927458" stroke="#005d5d" stroke-opacity="0.5" stroke-width="0.1922219252712125"/><path transform="translate(0,0)" d="M124.75247524752476,33.528309315428594C181.1881188118812,33.528309315428594 181.1881188118812,65.93363790953597 237.62376237623764,65.93363790953597" stroke="#005d5d" stroke-opacity="0.5" stroke-width="0.030350830305962972"/><path transform="translate(0,0)" d="M124.75247524752476,32.359802348648415C181.1881188118812,32.359802348648415 181.1881188118812,32.41544553754272 237.62376237623764,32.41544553754272" stroke="#005d5d" stroke-opacity="0.5" stroke-width="2.3066631032543796"/><path transform="translate(0,0)" d="M124.75247524752476,0.07587707576494074C181.1881188118812,0.07587707576494074 181.1881188118812,0.05058471717663826 237.62376237623764,0.05058471717663826" stroke="#9f1853" stroke-opacity="0.5" stroke-width="0.09105249091794576"/><path transform="translate(0,0)" d="M243.5643564356436,215.71068576858C300,215.71068576858 300,215.71321500443884 356.43564356435644,215.71321500443884" stroke="#6929c4" stroke-opacity="0.5" stroke-width="168.5685115194047"/><path transform="translate(0,0)" d="M243.5643564356436,127.57693303173602C300,127.57693303173602 300,86.98446796259091 356.43564356435644,86.98446796259091" stroke="#6929c4" stroke-opacity="0.5" stroke-width="7.698993954283196"/><path transform="translate(0,0)" d="M243.5643564356436,123.37081379849916C300,123.37081379849916 300,35.450528568140584 356.43564356435644,35.450528568140584" stroke="#6929c4" stroke-opacity="0.5" stroke-width="0.7132445121904993"/><path transform="translate(0,0)" d="M243.5643564356436,122.98384071209793C300,122.98384071209793 300,0.2352189348713396 356.43564356435644,0.2352189348713396" stroke="#6929c4" stroke-opacity="0.5" stroke-width="0.06070166061198279"/><path transform="translate(0,0)" d="M243.5643564356436,87.32085633181553C300,87.32085633181553 300,126.8459838685337 356.43564356435644,126.8459838685337" stroke="#1192e8" stroke-opacity="0.5" stroke-width="9.165950752405536"/><path transform="translate(0,0)" d="M243.5643564356436,74.62662155634001C300,74.62662155634001 300,75.02371158617656 356.43564356435644,75.02371158617656" stroke="#1192e8" stroke-opacity="0.5" stroke-width="16.222518798545536"/><path transform="translate(0,0)" d="M243.5643564356436,66.21185385400747C300,66.21185385400747 300,34.790398008985534 356.43564356435644,34.790398008985534" stroke="#1192e8" stroke-opacity="0.5" stroke-width="0.6070166061195437"/><path transform="translate(0,0)" d="M243.5643564356436,65.89064089993586C300,65.89064089993586 300,0.18716345355351827 356.43564356435644,0.18716345355351827" stroke="#1192e8" stroke-opacity="0.5" stroke-width="0.03540930202365189"/><path transform="translate(0,0)" d="M243.5643564356436,34.64117309331447C300,34.64117309331447 300,122.0657280953421 356.43564356435644,122.0657280953421" stroke="#005d5d" stroke-opacity="0.5" stroke-width="0.3945607939776892"/><path transform="translate(0,0)" d="M243.5643564356436,34.40848339430198C300,34.40848339430198 300,66.87704288488015 356.43564356435644,66.87704288488015" stroke="#005d5d" stroke-opacity="0.5" stroke-width="0.07081860404724694"/><path transform="translate(0,0)" d="M243.5643564356436,32.77965550121446C300,32.77965550121446 300,32.89347111486188 356.43564356435644,32.89347111486188" stroke="#005d5d" stroke-opacity="0.5" stroke-width="3.1868371821277606"/><path transform="translate(0,0)" d="M243.5643564356436,0.0809355474826079C300,0.0809355474826079 300,0.09864019849442629 356.43564356435644,0.09864019849442629" stroke="#9f1853" stroke-opacity="0.5" stroke-width="0.14163720809460756"/><path transform="translate(0,0)" d="M362.3762376237624,214.8355701614243C418.81188118811883,214.8355701614243 418.81188118811883,214.82545321798895 475.2475247524753,214.82545321798895" stroke="#6929c4" stroke-opacity="0.5" stroke-width="170.32380120543382"/><path transform="translate(0,0)" d="M362.3762376237624,126.09733005431956C418.81188118811883,126.09733005431956 418.81188118811883,87.35373639798031 475.2475247524753,87.35373639798031" stroke="#6929c4" stroke-opacity="0.5" stroke-width="7.1526790087755785"/><path transform="translate(0,0)" d="M362.3762376237624,122.19977759586016C418.81188118811883,122.19977759586016 418.81188118811883,36.99842091374547 475.2475247524753,36.99842091374547" stroke="#6929c4" stroke-opacity="0.5" stroke-width="0.6424259081431956"/><path transform="translate(0,0)" d="M362.3762376237624,87.13116364240317C418.81188118811883,87.13116364240317 418.81188118811883,125.96075131794268 475.2475247524753,125.96075131794268" stroke="#1192e8" stroke-opacity="0.5" stroke-width="7.405602594658774"/><path transform="translate(0,0)" d="M362.3762376237624,75.75971922109652C418.81188118811883,75.75971922109652 418.81188118811883,76.10875376961529 475.2475247524753,76.10875376961529" stroke="#1192e8" stroke-opacity="0.5" stroke-width="15.337286247954523"/><path transform="translate(0,0)" d="M362.3762376237624,67.47141331170556C418.81188118811883,67.47141331170556 418.81188118811883,36.05754517426014 475.2475247524753,36.05754517426014" stroke="#1192e8" stroke-opacity="0.5" stroke-width="1.239325570827475"/><path transform="translate(0,0)" d="M362.3762376237624,35.66045514442359C418.81188118811883,35.66045514442359 418.81188118811883,122.11125434080107 475.2475247524753,122.11125434080107" stroke="#005d5d" stroke-opacity="0.5" stroke-width="0.29339135962447926"/><path transform="translate(0,0)" d="M362.3762376237624,35.47076245501122C418.81188118811883,35.47076245501122 418.81188118811883,68.39711363603791 475.2475247524753,68.39711363603791" stroke="#005d5d" stroke-opacity="0.5" stroke-width="0.08599401920025684"/><path transform="translate(0,0)" d="M362.3762376237624,33.363908984604564C418.81188118811883,33.363908984604564 418.81188118811883,33.37402592803986 475.2475247524753,33.37402592803986" stroke="#005d5d" stroke-opacity="0.5" stroke-width="4.1277129216130675"/><path transform="translate(0,0)" d="M362.3762376237624,0.13404950051806308C418.81188118811883,0.13404950051806308 418.81188118811883,0.1441664439533974 475.2475247524753,0.1441664439533974" stroke="#9f1853" stroke-opacity="0.5" stroke-width="0.2630405293185163"/><path transform="translate(0,0)" d="M481.1881188118812,215.42488211653205C537.6237623762377,215.42488211653205 537.6237623762377,215.3768266352142 594.059405940594,215.3768266352142" stroke="#6929c4" stroke-opacity="0.5" stroke-width="169.12494340834766"/><path transform="translate(0,0)" d="M481.1881188118812,126.7574606134746C537.6237623762377,126.7574606134746 537.6237623762377,89.30630648099827 594.059405940594,89.30630648099827" stroke="#6929c4" stroke-opacity="0.5" stroke-width="8.209899597767219"/><path transform="translate(0,0)" d="M481.1881188118812,122.3565902191077C537.6237623762377,122.3565902191077 537.6237623762377,37.99241060626628 594.059405940594,37.99241060626628" stroke="#6929c4" stroke-opacity="0.5" stroke-width="0.5918411909665906"/><path transform="translate(0,0)" d="M481.1881188118812,122.03284802917727C537.6237623762377,122.03284802917727 537.6237623762377,0.5184933510604672 594.059405940594,0.5184933510604672" stroke="#6929c4" stroke-opacity="0.5" stroke-width="0.05564318889429387"/><path transform="translate(0,0)" d="M481.1881188118812,87.90258057934679C537.6237623762377,87.90258057934679 537.6237623762377,127.78685960801906 594.059405940594,127.78685960801906" stroke="#1192e8" stroke-opacity="0.5" stroke-width="6.054990646042711"/><path transform="translate(0,0)" d="M481.1881188118812,76.99145708434749C537.6237623762377,76.99145708434749 537.6237623762377,77.31772851013677 594.059405940594,77.31772851013677" stroke="#1192e8" stroke-opacity="0.5" stroke-width="15.767256343955864"/><path transform="translate(0,0)" d="M481.1881188118812,68.8220252603216C537.6237623762377,68.8220252603216 537.6237623762377,37.41068635873502 594.059405940594,37.41068635873502" stroke="#1192e8" stroke-opacity="0.5" stroke-width="0.5716073040959486"/><path transform="translate(0,0)" d="M481.1881188118812,68.4527568249322C537.6237623762377,68.4527568249322 537.6237623762377,0.4072069732718897 594.059405940594,0.4072069732718897" stroke="#1192e8" stroke-opacity="0.5" stroke-width="0.1669295666828816"/><path transform="translate(0,0)" d="M481.1881188118812,37.162821244569535C537.6237623762377,37.162821244569535 537.6237623762377,124.60255166175013 594.059405940594,124.60255166175013" stroke="#005d5d" stroke-opacity="0.5" stroke-width="0.31362524649512125"/><path transform="translate(0,0)" d="M481.1881188118812,36.95036543242768C537.6237623762377,36.95036543242768 537.6237623762377,69.37845714926455 594.059405940594,69.37845714926455" stroke="#005d5d" stroke-opacity="0.5" stroke-width="0.11128637778858774"/><path transform="translate(0,0)" d="M481.1881188118812,34.122679742254C537.6237623762377,34.122679742254 537.6237623762377,34.352840205407674 594.059405940594,34.352840205407674" stroke="#005d5d" stroke-opacity="0.5" stroke-width="5.544085002558745"/><path transform="translate(0,0)" d="M481.1881188118812,0.1441664439533974C537.6237623762377,0.1441664439533974 537.6237623762377,0.19222192527118542 594.059405940594,0.19222192527118542" stroke="#9f1853" stroke-opacity="0.5" stroke-width="0.2630405293185163"/></g><g class="mark-rect role-mark" role="graphics-symbol" aria-roledescription="rect mark container"><path d="M-62.2568359375,167.31011635328028L-10,167.31011635328028C-7.7923399020240005,167.31011635328028,-6,169.10245625530428,-6,171.31011635328028L-6,178.31011635328028C-6,180.51777645125628,-7.7923399020240005,182.31011635328028,-10,182.31011635328028L-62.2568359375,182.31011635328028C-64.464496035476,182.31011635328028,-66.2568359375,180.51777645125628,-66.2568359375,178.31011635328028L-66.2568359375,171.31011635328028C-66.2568359375,169.10245625530428,-64.464496035476,167.31011635328028,-62.2568359375,167.31011635328028Z" fill="#6929c4" opacity="0"/><path d="M56.55504525061882,198.9060894725616L108.81188118811882,198.9060894725616C111.01954128609482,198.9060894725616,112.81188118811882,200.6984293745856,112.81188118811882,202.9060894725616L112.81188118811882,209.9060894725616C112.81188118811882,212.1137495705376,111.01954128609482,213.9060894725616,108.81188118811882,213.9060894725616L56.55504525061882,213.9060894725616C54.347385152642815,213.9060894725616,52.55504525061882,212.1137495705376,52.55504525061882,209.9060894725616L52.55504525061882,202.9060894725616C52.55504525061882,200.6984293745856,54.347385152642815,198.9060894725616,56.55504525061882,198.9060894725616Z" fill="#6929c4" opacity="0"/><path d="M60.84654915686882,65.77394280048797L108.81188118811882,65.77394280048797C111.01954128609482,65.77394280048797,112.81188118811882,67.56628270251197,112.81188118811882,69.77394280048797L112.81188118811882,76.77394280048797C112.81188118811882,78.98160289846398,111.01954128609482,80.77394280048797,108.81188118811882,80.77394280048797L60.84654915686882,80.77394280048797C58.638889058892815,80.77394280048797,56.84654915686882,78.98160289846398,56.84654915686882,76.77394280048797L56.84654915686882,69.77394280048797C56.84654915686882,67.56628270251197,58.638889058892815,65.77394280048797,60.84654915686882,65.77394280048797Z" fill="#6929c4" opacity="0"/><path d="M49.22887337561882,21.445796367848686L108.81188118811882,21.445796367848686C111.01954128609482,21.445796367848686,112.81188118811882,23.238136269872687,112.81188118811882,25.445796367848686L112.81188118811882,32.445796367848686C112.81188118811882,34.65345646582469,111.01954128609482,36.445796367848686,108.81188118811882,36.445796367848686L49.22887337561882,36.445796367848686C47.021213277642815,36.445796367848686,45.22887337561882,34.65345646582469,45.22887337561882,32.445796367848686L45.22887337561882,25.445796367848686C45.22887337561882,23.238136269872687,47.021213277642815,21.445796367848686,49.22887337561882,21.445796367848686Z" fill="#6929c4" opacity="0"/><path d="M76.13805306311882,-10.939298339388028L108.81188118811882,-10.939298339388028C111.01954128609482,-10.939298339388028,112.81188118811882,-9.146958437364027,112.81188118811882,-6.939298339388028L112.81188118811882,0.06070166061197213C112.81188118811882,2.268361758587972,111.01954128609482,4.060701660611972,108.81188118811882,4.060701660611972L76.13805306311882,4.060701660611972C73.93039296514281,4.060701660611972,72.13805306311882,2.268361758587972,72.13805306311882,0.06070166061197213L72.13805306311882,-6.939298339388028C72.13805306311882,-9.146958437364027,73.93039296514281,-10.939298339388028,76.13805306311882,-10.939298339388028Z" fill="#6929c4" opacity="0"/><path d="M-57.96533203125,32.827357732590634L-10,32.827357732590634C-7.7923399020240005,32.827357732590634,-6,34.61969763461463,-6,36.827357732590634L-6,43.827357732590634C-6,46.03501783056664,-7.7923399020240005,47.827357732590634,-10,47.827357732590634L-57.96533203125,47.827357732590634C-60.172992129226,47.827357732590634,-61.96533203125,46.03501783056664,-61.96533203125,43.827357732590634L-61.96533203125,36.827357732590634C-61.96533203125,34.61969763461463,-60.172992129226,32.827357732590634,-57.96533203125,32.827357732590634Z" fill="#6929c4" opacity="0"/><path d="M175.36692643873764,200.46662799746062L227.62376237623764,200.46662799746062C229.83142247421364,200.46662799746062,231.62376237623764,202.25896789948462,231.62376237623764,204.46662799746062L231.62376237623764,211.46662799746062C231.62376237623764,213.67428809543662,229.83142247421364,215.46662799746062,227.62376237623764,215.46662799746062L175.36692643873764,215.46662799746062C173.15926634076163,215.46662799746062,171.36692643873764,213.67428809543662,171.36692643873764,211.46662799746062L171.36692643873764,204.46662799746062C171.36692643873764,202.25896789948462,173.15926634076163,200.46662799746062,175.36692643873764,200.46662799746062Z" fill="#6929c4" opacity="0"/><path d="M179.65843034498764,67.88838397847114L227.62376237623764,67.88838397847114C229.83142247421364,67.88838397847114,231.62376237623764,69.68072388049514,231.62376237623764,71.88838397847114L231.62376237623764,78.88838397847114C231.62376237623764,81.09604407644714,229.83142247421364,82.88838397847114,227.62376237623764,82.88838397847114L179.65843034498764,82.88838397847114C177.45077024701163,82.88838397847114,175.65843034498764,81.09604407644714,175.65843034498764,78.88838397847114L175.65843034498764,71.88838397847114C175.65843034498764,69.68072388049514,177.45077024701163,67.88838397847114,179.65843034498764,67.88838397847114Z" fill="#6929c4" opacity="0"/><path d="M168.04075456373764,22.012345200226974L227.62376237623764,22.012345200226974C229.83142247421364,22.012345200226974,231.62376237623764,23.804685102250975,231.62376237623764,26.012345200226974L231.62376237623764,33.012345200226974C231.62376237623764,35.22000529820298,229.83142247421364,37.012345200226974,227.62376237623764,37.012345200226974L168.04075456373764,37.012345200226974C165.83309446576163,37.012345200226974,164.04075456373764,35.22000529820298,164.04075456373764,33.012345200226974L164.04075456373764,26.012345200226974C164.04075456373764,23.804685102250975,165.83309446576163,22.012345200226974,168.04075456373764,22.012345200226974Z" fill="#6929c4" opacity="0"/><path d="M194.94993425123764,-10.921593688376209L227.62376237623764,-10.921593688376209C229.83142247421364,-10.921593688376209,231.62376237623764,-9.129253786352209,231.62376237623764,-6.921593688376209L231.62376237623764,0.07840631162379097C231.62376237623764,2.286066409599791,229.83142247421364,4.078406311623791,227.62376237623764,4.078406311623791L194.94993425123764,4.078406311623791C192.74227415326163,4.078406311623791,190.94993425123764,2.286066409599791,190.94993425123764,0.07840631162379097L190.94993425123764,-6.921593688376209C190.94993425123764,-9.129253786352209,192.74227415326163,-10.921593688376209,194.94993425123764,-10.921593688376209Z" fill="#6929c4" opacity="0"/><path d="M294.17880762685644,199.9329592312472L346.43564356435644,199.9329592312472C348.6433036623324,199.9329592312472,350.43564356435644,201.7252991332712,350.43564356435644,203.9329592312472L350.43564356435644,210.9329592312472C350.43564356435644,213.1406193292232,348.6433036623324,214.9329592312472,346.43564356435644,214.9329592312472L294.17880762685644,214.9329592312472C291.97114752888046,214.9329592312472,290.17880762685644,213.1406193292232,290.17880762685644,210.9329592312472L290.17880762685644,203.9329592312472C290.17880762685644,201.7252991332712,291.97114752888046,199.9329592312472,294.17880762685644,199.9329592312472Z" fill="#6929c4" opacity="0"/><path d="M298.47031153310644,67.83779926129453L346.43564356435644,67.83779926129453C348.6433036623324,67.83779926129453,350.43564356435644,69.63013916331853,350.43564356435644,71.83779926129453L350.43564356435644,78.83779926129453C350.43564356435644,81.04545935927054,348.6433036623324,82.83779926129453,346.43564356435644,82.83779926129453L298.47031153310644,82.83779926129453C296.26265143513046,82.83779926129453,294.47031153310644,81.04545935927054,294.47031153310644,78.83779926129453L294.47031153310644,71.83779926129453C294.47031153310644,69.63013916331853,296.26265143513046,67.83779926129453,298.47031153310644,67.83779926129453Z" fill="#6929c4" opacity="0"/><path d="M286.85263575185644,22.553601674016896L346.43564356435644,22.553601674016896C348.6433036623324,22.553601674016896,350.43564356435644,24.345941576040897,350.43564356435644,26.553601674016896L350.43564356435644,33.553601674016896C350.43564356435644,35.7612617719929,348.6433036623324,37.553601674016896,346.43564356435644,37.553601674016896L286.85263575185644,37.553601674016896C284.64497565388046,37.553601674016896,282.85263575185644,35.7612617719929,282.85263575185644,33.553601674016896L282.85263575185644,26.553601674016896C282.85263575185644,24.345941576040897,284.64497565388046,22.553601674016896,286.85263575185644,22.553601674016896Z" fill="#6929c4" opacity="0"/><path d="M313.76181543935644,-10.865950499481936L346.43564356435644,-10.865950499481936C348.6433036623324,-10.865950499481936,350.43564356435644,-9.073610597457936,350.43564356435644,-6.8659504994819365L350.43564356435644,0.13404950051806352C350.43564356435644,2.3417095984940635,348.6433036623324,4.1340495005180635,346.43564356435644,4.1340495005180635L313.76181543935644,4.1340495005180635C311.55415534138046,4.1340495005180635,309.76181543935644,2.3417095984940635,309.76181543935644,0.13404950051806352L309.76181543935644,-6.8659504994819365C309.76181543935644,-9.073610597457936,311.55415534138046,-10.865950499481936,313.76181543935644,-10.865950499481936Z" fill="#6929c4" opacity="0"/><path d="M412.9906888149753,199.97595624084735L465.2475247524753,199.97595624084735C467.45518485045125,199.97595624084735,469.2475247524753,201.76829614287135,469.2475247524753,203.97595624084735L469.2475247524753,210.97595624084735C469.2475247524753,213.18361633882336,467.45518485045125,214.97595624084735,465.2475247524753,214.97595624084735L412.9906888149753,214.97595624084735C410.7830287169993,214.97595624084735,408.9906888149753,213.18361633882336,408.9906888149753,210.97595624084735L408.9906888149753,203.97595624084735C408.9906888149753,201.76829614287135,410.7830287169993,199.97595624084735,412.9906888149753,199.97595624084735Z" fill="#6929c4" opacity="0"/><path d="M417.2821927212253,68.64209626440295L465.2475247524753,68.64209626440295C467.45518485045125,68.64209626440295,469.2475247524753,70.43443616642695,469.2475247524753,72.64209626440295L469.2475247524753,79.64209626440295C469.2475247524753,81.84975636237895,467.45518485045125,83.64209626440295,465.2475247524753,83.64209626440295L417.2821927212253,83.64209626440295C415.0745326232493,83.64209626440295,413.2821927212253,81.84975636237895,413.2821927212253,79.64209626440295L413.2821927212253,72.64209626440295C413.2821927212253,70.43443616642695,415.0745326232493,68.64209626440295,417.2821927212253,68.64209626440295Z" fill="#6929c4" opacity="0"/><path d="M405.6645169399753,23.31490166752522L465.2475247524753,23.31490166752522C467.45518485045125,23.31490166752522,469.2475247524753,25.10724156954922,469.2475247524753,27.31490166752522L469.2475247524753,34.31490166752522C469.2475247524753,36.52256176550122,467.45518485045125,38.31490166752522,465.2475247524753,38.31490166752522L405.6645169399753,38.31490166752522C403.4568568419993,38.31490166752522,401.6645169399753,36.52256176550122,401.6645169399753,34.31490166752522L401.6645169399753,27.31490166752522C401.6645169399753,25.10724156954922,403.4568568419993,23.31490166752522,405.6645169399753,23.31490166752522Z" fill="#6929c4" opacity="0"/><path d="M432.5736966274753,-10.855833556046603L465.2475247524753,-10.855833556046603C467.45518485045125,-10.855833556046603,469.2475247524753,-9.063493654022603,469.2475247524753,-6.855833556046603L469.2475247524753,0.14416644395339695C469.2475247524753,2.351826541929397,467.45518485045125,4.144166443953397,465.2475247524753,4.144166443953397L432.5736966274753,4.144166443953397C430.3660365294993,4.144166443953397,428.5736966274753,2.351826541929397,428.5736966274753,0.14416644395339695L428.5736966274753,-6.855833556046603C428.5736966274753,-9.063493654022603,430.3660365294993,-10.855833556046603,432.5736966274753,-10.855833556046603Z" fill="#6929c4" opacity="0"/><path d="M610,201.19251868894528L662.2568359375,201.19251868894528C664.464496035476,201.19251868894528,666.2568359375,202.98485859096928,666.2568359375,205.19251868894528L666.2568359375,212.19251868894528C666.2568359375,214.4001787869213,664.464496035476,216.19251868894528,662.2568359375,216.19251868894528L610,216.19251868894528C607.792339902024,216.19251868894528,606,214.4001787869213,606,212.19251868894528L606,205.19251868894528C606,202.98485859096928,607.792339902024,201.19251868894528,610,201.19251868894528Z" fill="#6929c4" opacity="0"/><path d="M610,70.36703512012605L657.96533203125,70.36703512012605C660.172992129226,70.36703512012605,661.96533203125,72.15937502215004,661.96533203125,74.36703512012605L661.96533203125,81.36703512012605C661.96533203125,83.57469521810205,660.172992129226,85.36703512012605,657.96533203125,85.36703512012605L610,85.36703512012605C607.792339902024,85.36703512012605,606,83.57469521810205,606,81.36703512012605L606,74.36703512012605C606,72.15937502215004,607.792339902024,70.36703512012605,610,70.36703512012605Z" fill="#6929c4" opacity="0"/><path d="M610,23.93456445293893L669.5830078125,23.93456445293893C671.790667910476,23.93456445293893,673.5830078125,25.72690435496293,673.5830078125,27.93456445293893L673.5830078125,34.93456445293893C673.5830078125,37.14222455091493,671.790667910476,38.93456445293893,669.5830078125,38.93456445293893L610,38.93456445293893C607.792339902024,38.93456445293893,606,37.14222455091493,606,34.93456445293893L606,27.93456445293893C606,25.72690435496293,607.792339902024,23.93456445293893,610,23.93456445293893Z" fill="#6929c4" opacity="0"/><path d="M610,-10.696491696940203L642.673828125,-10.696491696940203C644.881488222976,-10.696491696940203,646.673828125,-8.904151794916203,646.673828125,-6.696491696940203L646.673828125,0.3035083030597967C646.673828125,2.5111684010357966,644.881488222976,4.303508303059797,642.673828125,4.303508303059797L610,4.303508303059797C607.792339902024,4.303508303059797,606,2.5111684010357966,606,0.3035083030597967L606,-6.696491696940203C606,-8.904151794916203,607.792339902024,-10.696491696940203,610,-10.696491696940203Z" fill="#6929c4" opacity="0"/></g><g class="mark-group role-scope labelText" role="graphics-object" aria-roledescription="group mark container"><g transform="translate(-8,178.31011635328028)"><path class="background" aria-hidden="true" d="M0,0h0v0h0Z" fill-opacity="1"/><g><g class="mark-text role-mark headingOutline" role="graphics-object" aria-roledescription="text mark container"><text text-anchor="end" transform="translate(0,0)" font-family="sans-serif" font-size="11px" font-weight="normal" stroke="#fdf6e3" stroke-opacity="1" stroke-width="3">1 - Innenfor</text></g><g class="mark-text role-mark heading" role="graphics-object" aria-roledescription="text mark container"><text text-anchor="end" transform="translate(0,0)" font-family="sans-serif" font-size="11px" font-weight="normal" fill="#657b83" fill-opacity="1">1 - Innenfor</text></g></g><path class="foreground" aria-hidden="true" d="" display="none"/></g><g transform="translate(110.81188118811882,209.9060894725616)"><path class="background" aria-hidden="true" d="M0,0h0v0h0Z" fill-opacity="1"/><g><g class="mark-text role-mark headingOutline" role="graphics-object" aria-roledescription="text mark container"><text text-anchor="end" transform="translate(0,0)" font-family="sans-serif" font-size="11px" font-weight="normal" stroke="#fdf6e3" stroke-opacity="1" stroke-width="3">1 - Innenfor</text></g><g class="mark-text role-mark heading" role="graphics-object" aria-roledescription="text mark container"><text text-anchor="end" transform="translate(0,0)" font-family="sans-serif" font-size="11px" font-weight="normal" fill="#657b83" fill-opacity="1">1 - Innenfor</text></g></g><path class="foreground" aria-hidden="true" d="" display="none"/></g><g transform="translate(110.81188118811882,76.77394280048797)"><path class="background" aria-hidden="true" d="M0,0h0v0h0Z" fill-opacity="1"/><g><g class="mark-text role-mark headingOutline" role="graphics-object" aria-roledescription="text mark container"><text text-anchor="end" transform="translate(0,0)" font-family="sans-serif" font-size="11px" font-weight="normal" stroke="#fdf6e3" stroke-opacity="1" stroke-width="3">2 - Utenfor</text></g><g class="mark-text role-mark heading" role="graphics-object" aria-roledescription="text mark container"><text text-anchor="end" transform="translate(0,0)" font-family="sans-serif" font-size="11px" font-weight="normal" fill="#657b83" fill-opacity="1">2 - Utenfor</text></g></g><path class="foreground" aria-hidden="true" d="" display="none"/></g><g transform="translate(110.81188118811882,32.445796367848686)"><path class="background" aria-hidden="true" d="M0,0h0v0h0Z" fill-opacity="1"/><g><g class="mark-text role-mark headingOutline" role="graphics-object" aria-roledescription="text mark container"><text text-anchor="end" transform="translate(0,0)" font-family="sans-serif" font-size="11px" font-weight="normal" stroke="#fdf6e3" stroke-opacity="1" stroke-width="3">3 - Utvandret</text></g><g class="mark-text role-mark heading" role="graphics-object" aria-roledescription="text mark container"><text text-anchor="end" transform="translate(0,0)" font-family="sans-serif" font-size="11px" font-weight="normal" fill="#657b83" fill-opacity="1">3 - Utvandret</text></g></g><path class="foreground" aria-hidden="true" d="" display="none"/></g><g transform="translate(110.81188118811882,0.060701660611972574)"><path class="background" aria-hidden="true" d="M0,0h0v0h0Z" fill-opacity="1"/><g><g class="mark-text role-mark headingOutline" role="graphics-object" aria-roledescription="text mark container"><text text-anchor="end" transform="translate(0,0)" font-family="sans-serif" font-size="11px" font-weight="normal" stroke="#fdf6e3" stroke-opacity="1" stroke-width="3">4 - Død</text></g><g class="mark-text role-mark heading" role="graphics-object" aria-roledescription="text mark container"><text text-anchor="end" transform="translate(0,0)" font-family="sans-serif" font-size="11px" font-weight="normal" fill="#657b83" fill-opacity="1">4 - Død</text></g></g><path class="foreground" aria-hidden="true" d="" display="none"/></g><g transform="translate(-8,43.827357732590634)"><path class="background" aria-hidden="true" d="M0,0h0v0h0Z" fill-opacity="1"/><g><g class="mark-text role-mark headingOutline" role="graphics-object" aria-roledescription="text mark container"><text text-anchor="end" transform="translate(0,0)" font-family="sans-serif" font-size="11px" font-weight="normal" stroke="#fdf6e3" stroke-opacity="1" stroke-width="3">2 - Utenfor</text></g><g class="mark-text role-mark heading" role="graphics-object" aria-roledescription="text mark container"><text text-anchor="end" transform="translate(0,0)" font-family="sans-serif" font-size="11px" font-weight="normal" fill="#657b83" fill-opacity="1">2 - Utenfor</text></g></g><path class="foreground" aria-hidden="true" d="" display="none"/></g><g transform="translate(229.62376237623764,211.46662799746062)"><path class="background" aria-hidden="true" d="M0,0h0v0h0Z" fill-opacity="1"/><g><g class="mark-text role-mark headingOutline" role="graphics-object" aria-roledescription="text mark container"><text text-anchor="end" transform="translate(0,0)" font-family="sans-serif" font-size="11px" font-weight="normal" stroke="#fdf6e3" stroke-opacity="1" stroke-width="3">1 - Innenfor</text></g><g class="mark-text role-mark heading" role="graphics-object" aria-roledescription="text mark container"><text text-anchor="end" transform="translate(0,0)" font-family="sans-serif" font-size="11px" font-weight="normal" fill="#657b83" fill-opacity="1">1 - Innenfor</text></g></g><path class="foreground" aria-hidden="true" d="" display="none"/></g><g transform="translate(229.62376237623764,78.88838397847114)"><path class="background" aria-hidden="true" d="M0,0h0v0h0Z" fill-opacity="1"/><g><g class="mark-text role-mark headingOutline" role="graphics-object" aria-roledescription="text mark container"><text text-anchor="end" transform="translate(0,0)" font-family="sans-serif" font-size="11px" font-weight="normal" stroke="#fdf6e3" stroke-opacity="1" stroke-width="3">2 - Utenfor</text></g><g class="mark-text role-mark heading" role="graphics-object" aria-roledescription="text mark container"><text text-anchor="end" transform="translate(0,0)" font-family="sans-serif" font-size="11px" font-weight="normal" fill="#657b83" fill-opacity="1">2 - Utenfor</text></g></g><path class="foreground" aria-hidden="true" d="" display="none"/></g><g transform="translate(229.62376237623764,33.012345200226974)"><path class="background" aria-hidden="true" d="M0,0h0v0h0Z" fill-opacity="1"/><g><g class="mark-text role-mark headingOutline" role="graphics-object" aria-roledescription="text mark container"><text text-anchor="end" transform="translate(0,0)" font-family="sans-serif" font-size="11px" font-weight="normal" stroke="#fdf6e3" stroke-opacity="1" stroke-width="3">3 - Utvandret</text></g><g class="mark-text role-mark heading" role="graphics-object" aria-roledescription="text mark container"><text text-anchor="end" transform="translate(0,0)" font-family="sans-serif" font-size="11px" font-weight="normal" fill="#657b83" fill-opacity="1">3 - Utvandret</text></g></g><path class="foreground" aria-hidden="true" d="" display="none"/></g><g transform="translate(229.62376237623764,0.07840631162379097)"><path class="background" aria-hidden="true" d="M0,0h0v0h0Z" fill-opacity="1"/><g><g class="mark-text role-mark headingOutline" role="graphics-object" aria-roledescription="text mark container"><text text-anchor="end" transform="translate(0,0)" font-family="sans-serif" font-size="11px" font-weight="normal" stroke="#fdf6e3" stroke-opacity="1" stroke-width="3">4 - Død</text></g><g class="mark-text role-mark heading" role="graphics-object" aria-roledescription="text mark container"><text text-anchor="end" transform="translate(0,0)" font-family="sans-serif" font-size="11px" font-weight="normal" fill="#657b83" fill-opacity="1">4 - Død</text></g></g><path class="foreground" aria-hidden="true" d="" display="none"/></g><g transform="translate(348.43564356435644,210.9329592312472)"><path class="background" aria-hidden="true" d="M0,0h0v0h0Z" fill-opacity="1"/><g><g class="mark-text role-mark headingOutline" role="graphics-object" aria-roledescription="text mark container"><text text-anchor="end" transform="translate(0,0)" font-family="sans-serif" font-size="11px" font-weight="normal" stroke="#fdf6e3" stroke-opacity="1" stroke-width="3">1 - Innenfor</text></g><g class="mark-text role-mark heading" role="graphics-object" aria-roledescription="text mark container"><text text-anchor="end" transform="translate(0,0)" font-family="sans-serif" font-size="11px" font-weight="normal" fill="#657b83" fill-opacity="1">1 - Innenfor</text></g></g><path class="foreground" aria-hidden="true" d="" display="none"/></g><g transform="translate(348.43564356435644,78.83779926129453)"><path class="background" aria-hidden="true" d="M0,0h0v0h0Z" fill-opacity="1"/><g><g class="mark-text role-mark headingOutline" role="graphics-object" aria-roledescription="text mark container"><text text-anchor="end" transform="translate(0,0)" font-family="sans-serif" font-size="11px" font-weight="normal" stroke="#fdf6e3" stroke-opacity="1" stroke-width="3">2 - Utenfor</text></g><g class="mark-text role-mark heading" role="graphics-object" aria-roledescription="text mark container"><text text-anchor="end" transform="translate(0,0)" font-family="sans-serif" font-size="11px" font-weight="normal" fill="#657b83" fill-opacity="1">2 - Utenfor</text></g></g><path class="foreground" aria-hidden="true" d="" display="none"/></g><g transform="translate(348.43564356435644,33.553601674016896)"><path class="background" aria-hidden="true" d="M0,0h0v0h0Z" fill-opacity="1"/><g><g class="mark-text role-mark headingOutline" role="graphics-object" aria-roledescription="text mark container"><text text-anchor="end" transform="translate(0,0)" font-family="sans-serif" font-size="11px" font-weight="normal" stroke="#fdf6e3" stroke-opacity="1" stroke-width="3">3 - Utvandret</text></g><g class="mark-text role-mark heading" role="graphics-object" aria-roledescription="text mark container"><text text-anchor="end" transform="translate(0,0)" font-family="sans-serif" font-size="11px" font-weight="normal" fill="#657b83" fill-opacity="1">3 - Utvandret</text></g></g><path class="foreground" aria-hidden="true" d="" display="none"/></g><g transform="translate(348.43564356435644,0.13404950051806308)"><path class="background" aria-hidden="true" d="M0,0h0v0h0Z" fill-opacity="1"/><g><g class="mark-text role-mark headingOutline" role="graphics-object" aria-roledescription="text mark container"><text text-anchor="end" transform="translate(0,0)" font-family="sans-serif" font-size="11px" font-weight="normal" stroke="#fdf6e3" stroke-opacity="1" stroke-width="3">4 - Død</text></g><g class="mark-text role-mark heading" role="graphics-object" aria-roledescription="text mark container"><text text-anchor="end" transform="translate(0,0)" font-family="sans-serif" font-size="11px" font-weight="normal" fill="#657b83" fill-opacity="1">4 - Død</text></g></g><path class="foreground" aria-hidden="true" d="" display="none"/></g><g transform="translate(467.2475247524753,210.97595624084735)"><path class="background" aria-hidden="true" d="M0,0h0v0h0Z" fill-opacity="1"/><g><g class="mark-text role-mark headingOutline" role="graphics-object" aria-roledescription="text mark container"><text text-anchor="end" transform="translate(0,0)" font-family="sans-serif" font-size="11px" font-weight="normal" stroke="#fdf6e3" stroke-opacity="1" stroke-width="3">1 - Innenfor</text></g><g class="mark-text role-mark heading" role="graphics-object" aria-roledescription="text mark container"><text text-anchor="end" transform="translate(0,0)" font-family="sans-serif" font-size="11px" font-weight="normal" fill="#657b83" fill-opacity="1">1 - Innenfor</text></g></g><path class="foreground" aria-hidden="true" d="" display="none"/></g><g transform="translate(467.2475247524753,79.64209626440295)"><path class="background" aria-hidden="true" d="M0,0h0v0h0Z" fill-opacity="1"/><g><g class="mark-text role-mark headingOutline" role="graphics-object" aria-roledescription="text mark container"><text text-anchor="end" transform="translate(0,0)" font-family="sans-serif" font-size="11px" font-weight="normal" stroke="#fdf6e3" stroke-opacity="1" stroke-width="3">2 - Utenfor</text></g><g class="mark-text role-mark heading" role="graphics-object" aria-roledescription="text mark container"><text text-anchor="end" transform="translate(0,0)" font-family="sans-serif" font-size="11px" font-weight="normal" fill="#657b83" fill-opacity="1">2 - Utenfor</text></g></g><path class="foreground" aria-hidden="true" d="" display="none"/></g><g transform="translate(467.2475247524753,34.31490166752522)"><path class="background" aria-hidden="true" d="M0,0h0v0h0Z" fill-opacity="1"/><g><g class="mark-text role-mark headingOutline" role="graphics-object" aria-roledescription="text mark container"><text text-anchor="end" transform="translate(0,0)" font-family="sans-serif" font-size="11px" font-weight="normal" stroke="#fdf6e3" stroke-opacity="1" stroke-width="3">3 - Utvandret</text></g><g class="mark-text role-mark heading" role="graphics-object" aria-roledescription="text mark container"><text text-anchor="end" transform="translate(0,0)" font-family="sans-serif" font-size="11px" font-weight="normal" fill="#657b83" fill-opacity="1">3 - Utvandret</text></g></g><path class="foreground" aria-hidden="true" d="" display="none"/></g><g transform="translate(467.2475247524753,0.1441664439533974)"><path class="background" aria-hidden="true" d="M0,0h0v0h0Z" fill-opacity="1"/><g><g class="mark-text role-mark headingOutline" role="graphics-object" aria-roledescription="text mark container"><text text-anchor="end" transform="translate(0,0)" font-family="sans-serif" font-size="11px" font-weight="normal" stroke="#fdf6e3" stroke-opacity="1" stroke-width="3">4 - Død</text></g><g class="mark-text role-mark heading" role="graphics-object" aria-roledescription="text mark container"><text text-anchor="end" transform="translate(0,0)" font-family="sans-serif" font-size="11px" font-weight="normal" fill="#657b83" fill-opacity="1">4 - Død</text></g></g><path class="foreground" aria-hidden="true" d="" display="none"/></g><g transform="translate(608,212.19251868894528)"><path class="background" aria-hidden="true" d="M0,0h0v0h0Z" fill-opacity="1"/><g><g class="mark-text role-mark headingOutline" role="graphics-object" aria-roledescription="text mark container"><text text-anchor="start" transform="translate(0,0)" font-family="sans-serif" font-size="11px" font-weight="normal" stroke="#fdf6e3" stroke-opacity="1" stroke-width="3">1 - Innenfor</text></g><g class="mark-text role-mark heading" role="graphics-object" aria-roledescription="text mark container"><text text-anchor="start" transform="translate(0,0)" font-family="sans-serif" font-size="11px" font-weight="normal" fill="#657b83" fill-opacity="1">1 - Innenfor</text></g></g><path class="foreground" aria-hidden="true" d="" display="none"/></g><g transform="translate(608,81.36703512012605)"><path class="background" aria-hidden="true" d="M0,0h0v0h0Z" fill-opacity="1"/><g><g class="mark-text role-mark headingOutline" role="graphics-object" aria-roledescription="text mark container"><text text-anchor="start" transform="translate(0,0)" font-family="sans-serif" font-size="11px" font-weight="normal" stroke="#fdf6e3" stroke-opacity="1" stroke-width="3">2 - Utenfor</text></g><g class="mark-text role-mark heading" role="graphics-object" aria-roledescription="text mark container"><text text-anchor="start" transform="translate(0,0)" font-family="sans-serif" font-size="11px" font-weight="normal" fill="#657b83" fill-opacity="1">2 - Utenfor</text></g></g><path class="foreground" aria-hidden="true" d="" display="none"/></g><g transform="translate(608,34.93456445293893)"><path class="background" aria-hidden="true" d="M0,0h0v0h0Z" fill-opacity="1"/><g><g class="mark-text role-mark headingOutline" role="graphics-object" aria-roledescription="text mark container"><text text-anchor="start" transform="translate(0,0)" font-family="sans-serif" font-size="11px" font-weight="normal" stroke="#fdf6e3" stroke-opacity="1" stroke-width="3">3 - Utvandret</text></g><g class="mark-text role-mark heading" role="graphics-object" aria-roledescription="text mark container"><text text-anchor="start" transform="translate(0,0)" font-family="sans-serif" font-size="11px" font-weight="normal" fill="#657b83" fill-opacity="1">3 - Utvandret</text></g></g><path class="foreground" aria-hidden="true" d="" display="none"/></g><g transform="translate(608,0.30350830305979626)"><path class="background" aria-hidden="true" d="M0,0h0v0h0Z" fill-opacity="1"/><g><g class="mark-text role-mark headingOutline" role="graphics-object" aria-roledescription="text mark container"><text text-anchor="start" transform="translate(0,0)" font-family="sans-serif" font-size="11px" font-weight="normal" stroke="#fdf6e3" stroke-opacity="1" stroke-width="3">4 - Død</text></g><g class="mark-text role-mark heading" role="graphics-object" aria-roledescription="text mark container"><text text-anchor="start" transform="translate(0,0)" font-family="sans-serif" font-size="11px" font-weight="normal" fill="#657b83" fill-opacity="1">4 - Død</text></g></g><path class="foreground" aria-hidden="true" d="" display="none"/></g></g></g><path class="foreground" aria-hidden="true" d="" display="none"/></g></g></g><defs><clipPath id="clip21"><rect x="0" y="0" width="600" height="300"/></clipPath></defs></svg>